<svg id="kity_svg_6" xmlns="http://www.w3.org/2000/svg" xmlns:xlink="http://www.w3.org/1999/xlink" version="1.1" width="1078" height="1348" style="background: rgb(251, 251, 251); visibility: visible;" viewBox="0 0 1078 1348"><defs id="kity_defs_7"><linearGradient id="kity_linearGradient_17" x1="0" y1="0" x2="0" y2="1"><stop id="kity_stop_18" offset="0" stop-color="rgb(255, 255, 255)"></stop><stop id="kity_stop_19" offset="1" stop-color="rgb(204, 204, 204)"></stop></linearGradient><marker id="kity_marker_2" orient="auto" refX="6" refY="0" viewBox="-7 -7 14 14" markerWidth="7" markerHeight="7" markerUnits="userSpaceOnUse"><path id="kity_path_3" fill="rgb(115, 161, 191)" stroke="none" d="M6,0A6,6,0,1,1,-6,0A6,6,0,1,1,6,0"></path></marker></defs><g id="kity_g_8"><g id="minder1" text-rendering="geometricPrecision"><g id="minder_connect_group1"><path id="kity_path_31" fill="none" stroke="rgb(115, 161, 191)" stroke-width="1" d="M71.5,635.5A169,578,0,0,1,240.5,57.5"></path><path id="kity_path_39" fill="none" stroke="rgb(115, 161, 191)" stroke-width="1" d="M310.5,57.5C330.5,57.5,330.5,31.5,350.5,31.5"></path><path id="kity_path_63" fill="none" stroke="rgb(115, 161, 191)" stroke-width="1" d="M310.5,57.5C330.5,57.5,330.5,83.5,350.5,83.5"></path><path id="kity_path_79" fill="none" stroke="rgb(115, 161, 191)" stroke-width="1" d="M472.5,31.5C492.5,31.5,492.5,31.5,512.5,31.5"></path><path id="kity_path_88" fill="none" stroke="rgb(115, 161, 191)" stroke-width="1" d="M541.5,83.5C561.5,83.5,561.5,83.5,581.5,83.5"></path><path id="kity_path_96" fill="none" stroke="rgb(115, 161, 191)" stroke-width="1" d="M71.5,635.5A169,43,0,0,1,240.5,592.5"></path><path id="kity_path_104" fill="none" stroke="rgb(115, 161, 191)" stroke-width="1" d="M310.5,592.5C330.5,592.5,330.5,146.5,350.5,146.5"></path><path id="kity_path_112" fill="none" stroke="rgb(115, 161, 191)" stroke-width="1" d="M310.5,592.5C330.5,592.5,330.5,198.5,350.5,198.5"></path><path id="kity_path_120" fill="none" stroke="rgb(115, 161, 191)" stroke-width="1" d="M310.5,592.5C330.5,592.5,330.5,354.5,350.5,354.5"></path><path id="kity_path_128" fill="none" stroke="rgb(115, 161, 191)" stroke-width="1" d="M310.5,592.5C330.5,592.5,330.5,458.5,350.5,458.5"></path><path id="kity_path_136" fill="none" stroke="rgb(115, 161, 191)" stroke-width="1" d="M310.5,592.5C330.5,592.5,330.5,510.5,350.5,510.5"></path><path id="kity_path_160" fill="none" stroke="rgb(115, 161, 191)" stroke-width="1" d="M310.5,592.5C330.5,592.5,330.5,562.5,350.5,562.5"></path><path id="kity_path_168" fill="none" stroke="rgb(115, 161, 191)" stroke-width="1" d="M310.5,592.5C330.5,592.5,330.5,614.5,350.5,614.5"></path><path id="kity_path_176" fill="none" stroke="rgb(115, 161, 191)" stroke-width="1" d="M310.5,592.5C330.5,592.5,330.5,666.5,350.5,666.5"></path><path id="kity_path_184" fill="none" stroke="rgb(115, 161, 191)" stroke-width="1" d="M310.5,592.5C330.5,592.5,330.5,406.5,350.5,406.5"></path><path id="kity_path_192" fill="none" stroke="rgb(115, 161, 191)" stroke-width="1" d="M458.5,146.5C478.5,146.5,478.5,146.5,498.5,146.5"></path><path id="kity_path_200" fill="none" stroke="rgb(115, 161, 191)" stroke-width="1" d="M310.5,592.5C330.5,592.5,330.5,250.5,350.5,250.5"></path><path id="kity_path_208" fill="none" stroke="rgb(115, 161, 191)" stroke-width="1" d="M462.5,198.5C482.5,198.5,482.5,198.5,502.5,198.5"></path><path id="kity_path_216" fill="none" stroke="rgb(115, 161, 191)" stroke-width="1" d="M310.5,592.5C330.5,592.5,330.5,302.5,350.5,302.5"></path><path id="kity_path_224" fill="none" stroke="rgb(115, 161, 191)" stroke-width="1" d="M517.5,302.5C537.5,302.5,537.5,302.5,557.5,302.5"></path><path id="kity_path_232" fill="none" stroke="rgb(115, 161, 191)" stroke-width="1" d="M509.5,250.5C529.5,250.5,529.5,250.5,549.5,250.5"></path><path id="kity_path_248" fill="none" stroke="rgb(115, 161, 191)" stroke-width="1" d="M459.5,354.5C479.5,354.5,479.5,354.5,499.5,354.5"></path><path id="kity_path_256" fill="none" stroke="rgb(115, 161, 191)" stroke-width="1" d="M467.5,406.5C487.5,406.5,487.5,406.5,507.5,406.5"></path><path id="kity_path_264" fill="none" stroke="rgb(115, 161, 191)" stroke-width="1" d="M446.5,458.5C466.5,458.5,466.5,458.5,486.5,458.5"></path><path id="kity_path_272" fill="none" stroke="rgb(115, 161, 191)" stroke-width="1" d="M470.5,510.5C490.5,510.5,490.5,510.5,510.5,510.5"></path><path id="kity_path_280" fill="none" stroke="rgb(115, 161, 191)" stroke-width="1" d="M527.5,562.5C547.5,562.5,547.5,562.5,567.5,562.5"></path><path id="kity_path_288" fill="none" stroke="rgb(115, 161, 191)" stroke-width="1" d="M487.5,614.5C507.5,614.5,507.5,614.5,527.5,614.5"></path><path id="kity_path_296" fill="none" stroke="rgb(115, 161, 191)" stroke-width="1" d="M310.5,592.5C330.5,592.5,330.5,718.5,350.5,718.5"></path><path id="kity_path_304" fill="none" stroke="rgb(115, 161, 191)" stroke-width="1" d="M430.5,666.5C450.5,666.5,450.5,666.5,470.5,666.5"></path><path id="kity_path_312" fill="none" stroke="rgb(115, 161, 191)" stroke-width="1" d="M448.5,718.5C468.5,718.5,468.5,718.5,488.5,718.5"></path><path id="kity_path_320" fill="none" stroke="rgb(115, 161, 191)" stroke-width="1" d="M310.5,592.5C330.5,592.5,330.5,770.5,350.5,770.5"></path><path id="kity_path_328" fill="none" stroke="rgb(115, 161, 191)" stroke-width="1" d="M460.5,770.5C480.5,770.5,480.5,770.5,500.5,770.5"></path><path id="kity_path_336" fill="none" stroke="rgb(115, 161, 191)" stroke-width="1" d="M310.5,592.5C330.5,592.5,330.5,822.5,350.5,822.5"></path><path id="kity_path_344" fill="none" stroke="rgb(115, 161, 191)" stroke-width="1" d="M310.5,592.5C330.5,592.5,330.5,874.5,350.5,874.5"></path><path id="kity_path_352" fill="none" stroke="rgb(115, 161, 191)" stroke-width="1" d="M461.5,822.5C481.5,822.5,481.5,822.5,501.5,822.5"></path><path id="kity_path_360" fill="none" stroke="rgb(115, 161, 191)" stroke-width="1" d="M578.5,874.5C598.5,874.5,598.5,874.5,618.5,874.5"></path><path id="kity_path_368" fill="none" stroke="rgb(115, 161, 191)" stroke-width="1" d="M310.5,592.5C330.5,592.5,330.5,926.5,350.5,926.5"></path><path id="kity_path_376" fill="none" stroke="rgb(115, 161, 191)" stroke-width="1" d="M560.5,926.5C580.5,926.5,580.5,926.5,600.5,926.5"></path><path id="kity_path_392" fill="none" stroke="rgb(115, 161, 191)" stroke-width="1" d="M310.5,592.5C330.5,592.5,330.5,978.5,350.5,978.5"></path><path id="kity_path_400" fill="none" stroke="rgb(115, 161, 191)" stroke-width="1" d="M310.5,592.5C330.5,592.5,330.5,1039.5,350.5,1039.5"></path><path id="kity_path_408" fill="none" stroke="rgb(115, 161, 191)" stroke-width="1" d="M566.5,978.5C586.5,978.5,586.5,978.5,606.5,978.5"></path><path id="kity_path_416" fill="none" stroke="rgb(115, 161, 191)" stroke-width="1" d="M511.5,1039.5C531.5,1039.5,531.5,1039.5,551.5,1039.5"></path><path id="kity_path_425" fill="none" stroke="rgb(115, 161, 191)" stroke-width="1" d="M71.5,635.5A169,578,0,0,0,240.5,1213.5"></path><path id="kity_path_433" fill="none" stroke="rgb(115, 161, 191)" stroke-width="1" d="M338.5,1213.5C358.5,1213.5,358.5,1109.5,378.5,1109.5"></path><path id="kity_path_441" fill="none" stroke="rgb(115, 161, 191)" stroke-width="1" d="M338.5,1213.5C358.5,1213.5,358.5,1161.5,378.5,1161.5"></path><path id="kity_path_449" fill="none" stroke="rgb(115, 161, 191)" stroke-width="1" d="M338.5,1213.5C358.5,1213.5,358.5,1213.5,378.5,1213.5"></path><path id="kity_path_457" fill="none" stroke="rgb(115, 161, 191)" stroke-width="1" d="M338.5,1213.5C358.5,1213.5,358.5,1265.5,378.5,1265.5"></path><path id="kity_path_465" fill="none" stroke="rgb(115, 161, 191)" stroke-width="1" d="M525.5,1109.5C545.5,1109.5,545.5,1109.5,565.5,1109.5"></path><path id="kity_path_473" fill="none" stroke="rgb(115, 161, 191)" stroke-width="1" d="M510.5,1161.5C530.5,1161.5,530.5,1161.5,550.5,1161.5"></path><path id="kity_path_481" fill="none" stroke="rgb(115, 161, 191)" stroke-width="1" d="M556.5,1213.5C576.5,1213.5,576.5,1213.5,596.5,1213.5"></path><path id="kity_path_489" fill="none" stroke="rgb(115, 161, 191)" stroke-width="1" d="M512.5,1265.5C532.5,1265.5,532.5,1265.5,552.5,1265.5"></path><path id="kity_path_497" fill="none" stroke="rgb(115, 161, 191)" stroke-width="1" d="M338.5,1213.5C358.5,1213.5,358.5,1317.5,378.5,1317.5"></path><path id="kity_path_505" fill="none" stroke="rgb(115, 161, 191)" stroke-width="1" d="M471.5,1317.5C491.5,1317.5,491.5,1317.5,511.5,1317.5"></path></g><g id="minder_node1"><path id="node_outline1" fill="rgb(115, 161, 191)" stroke="rgb(115, 161, 191)" d="M25.5,615.5h92a5,5,0,0,1,5,5v30a5,5,0,0,1,-5,5h-92a5,5,0,0,1,-5,-5v-30a5,5,0,0,1,5,-5z" stroke-width="3"></path><g id="node_text1" fill="white"><text id="kity_text_22" text-rendering="inherit" font-size="16" dy=".8em" y="627.5" x="44.5">Object</text></g></g><g id="kity_g_12"><path id="kity_path_13" fill="none" stroke="none" d="M44.5,635.5h0v0h0z"></path></g><g id="kity_g_14"><path id="kity_path_15" fill="none" stroke="none" d="M44.5,635.5h0v0h0z"></path><path id="kity_path_16" fill="none" stroke="none"></path></g><g id="minder_node2"><g id="node_expander1" style="cursor: pointer;"><path id="kity_path_36" fill="white" stroke="gray" d="M241.5,57.5A6,6,0,1,1,229.5,57.5A6,6,0,1,1,241.5,57.5"></path><path id="kity_path_37" fill="none" stroke="gray" d="M231,57.5L240,57.5"></path></g><path id="node_outline2" fill="rgb(238, 243, 246)" stroke="rgb(115, 161, 191)" d="M245.5,44.5h62a3,3,0,0,1,3,3v20a3,3,0,0,1,-3,3h-62a3,3,0,0,1,-3,-3v-20a3,3,0,0,1,3,-3z" stroke-width="1"></path><g id="node_text2" fill="black"><text id="kity_text_33" text-rendering="inherit" font-size="14" dy=".8em" y="50.5" x="262.5">属性</text></g></g><g id="minder_node3"><g id="node_expander2" style="cursor: pointer;"><path id="kity_path_44" fill="white" stroke="gray" d="M350.5,31.5A6,6,0,1,1,338.5,31.5A6,6,0,1,1,350.5,31.5"></path><path id="kity_path_45" fill="none" stroke="gray" d="M340,31.5L349,31.5"></path></g><path id="node_outline3" fill="none" stroke="none" d="M355.5,20.5h112a5,5,0,0,1,5,5v12a5,5,0,0,1,-5,5h-112a5,5,0,0,1,-5,-5v-12a5,5,0,0,1,5,-5z" stroke-width="3"></path><g id="node_text3" fill="black"><text id="kity_text_41" text-rendering="inherit" font-size="12" dy=".8em" y="25.5" x="360.5">Object.prototype</text></g></g><g id="minder_node6"><g id="node_expander5" style="cursor: pointer;"><path id="kity_path_68" fill="white" stroke="gray" d="M350.5,83.5A6,6,0,1,1,338.5,83.5A6,6,0,1,1,350.5,83.5"></path><path id="kity_path_69" fill="none" stroke="gray" d="M340,83.5L349,83.5"></path></g><path id="node_outline6" fill="none" stroke="none" d="M355.5,72.5h181a5,5,0,0,1,5,5v12a5,5,0,0,1,-5,5h-181a5,5,0,0,1,-5,-5v-12a5,5,0,0,1,5,-5z" stroke-width="3"></path><g id="node_text6" fill="black"><text id="kity_text_65" text-rendering="inherit" font-size="12" dy=".8em" y="77.5" x="360.5">Object.prototype.constructor</text></g></g><g id="minder_node8"><g id="node_expander7" style="cursor: pointer;" display="none"><path id="kity_path_84" fill="white" stroke="gray" d="M512.5,31.5A6,6,0,1,1,500.5,31.5A6,6,0,1,1,512.5,31.5"></path><path id="kity_path_85" fill="none" stroke="gray"></path></g><path id="node_outline8" fill="none" stroke="none" d="M517.5,20.5h237a5,5,0,0,1,5,5v12a5,5,0,0,1,-5,5h-237a5,5,0,0,1,-5,-5v-12a5,5,0,0,1,5,-5z" stroke-width="3"></path><g id="node_text8" fill="black"><text id="kity_text_81" text-rendering="inherit" font-size="12" dy=".8em" y="25.5" x="522.5">可以为所有 Object 类型的对象添加属性。</text></g></g><g id="minder_node9"><g id="node_expander8" style="cursor: pointer;" display="none"><path id="kity_path_93" fill="white" stroke="gray" d="M581.5,83.5A6,6,0,1,1,569.5,83.5A6,6,0,1,1,581.5,83.5"></path><path id="kity_path_94" fill="none" stroke="gray"></path></g><path id="node_outline9" fill="none" stroke="none" d="M586.5,72.5h271a5,5,0,0,1,5,5v12a5,5,0,0,1,-5,5h-271a5,5,0,0,1,-5,-5v-12a5,5,0,0,1,5,-5z" stroke-width="3"></path><g id="node_text9" fill="black"><text id="kity_text_90" text-rendering="inherit" font-size="12" dy=".8em" y="77.5" x="591.5">所有对象都会从它的原型上继承一个&#xa0;constructor</text></g></g><g id="minder_node10"><g id="node_expander9" style="cursor: pointer;"><path id="kity_path_101" fill="white" stroke="gray" d="M241.5,592.5A6,6,0,1,1,229.5,592.5A6,6,0,1,1,241.5,592.5"></path><path id="kity_path_102" fill="none" stroke="gray" d="M231,592.5L240,592.5"></path></g><path id="node_outline10" fill="rgb(238, 243, 246)" stroke="rgb(115, 161, 191)" d="M245.5,579.5h62a3,3,0,0,1,3,3v20a3,3,0,0,1,-3,3h-62a3,3,0,0,1,-3,-3v-20a3,3,0,0,1,3,-3z" stroke-width="1"></path><g id="node_text10" fill="black"><text id="kity_text_98" text-rendering="inherit" font-size="14" dy=".8em" y="585.5" x="262.5">方法</text></g></g><g id="minder_node11"><g id="node_expander10" style="cursor: pointer;"><path id="kity_path_109" fill="white" stroke="gray" d="M350.5,146.5A6,6,0,1,1,338.5,146.5A6,6,0,1,1,350.5,146.5"></path><path id="kity_path_110" fill="none" stroke="gray" d="M340,146.5L349,146.5"></path></g><path id="node_outline11" fill="none" stroke="none" d="M355.5,135.5h98a5,5,0,0,1,5,5v12a5,5,0,0,1,-5,5h-98a5,5,0,0,1,-5,-5v-12a5,5,0,0,1,5,-5z" stroke-width="3"></path><g id="node_text11" fill="black"><text id="kity_text_106" text-rendering="inherit" font-size="12" dy=".8em" y="140.5" x="360.5">Object.assign()</text></g></g><g id="minder_node12"><g id="node_expander11" style="cursor: pointer;"><path id="kity_path_117" fill="white" stroke="gray" d="M350.5,198.5A6,6,0,1,1,338.5,198.5A6,6,0,1,1,350.5,198.5"></path><path id="kity_path_118" fill="none" stroke="gray" d="M340,198.5L349,198.5"></path></g><path id="node_outline12" fill="none" stroke="none" d="M355.5,187.5h102a5,5,0,0,1,5,5v12a5,5,0,0,1,-5,5h-102a5,5,0,0,1,-5,-5v-12a5,5,0,0,1,5,-5z" stroke-width="3"></path><g id="node_text12" fill="black"><text id="kity_text_114" text-rendering="inherit" font-size="12" dy=".8em" y="192.5" x="360.5">Object.create()</text></g></g><g id="minder_node13"><g id="node_expander12" style="cursor: pointer;"><path id="kity_path_125" fill="white" stroke="gray" d="M350.5,354.5A6,6,0,1,1,338.5,354.5A6,6,0,1,1,350.5,354.5"></path><path id="kity_path_126" fill="none" stroke="gray" d="M340,354.5L349,354.5"></path></g><path id="node_outline13" fill="none" stroke="none" d="M355.5,343.5h99a5,5,0,0,1,5,5v12a5,5,0,0,1,-5,5h-99a5,5,0,0,1,-5,-5v-12a5,5,0,0,1,5,-5z" stroke-width="3"></path><g id="node_text13" fill="black"><text id="kity_text_122" text-rendering="inherit" font-size="12" dy=".8em" y="348.5" x="360.5">Object.freeze()</text></g></g><g id="minder_node14"><g id="node_expander13" style="cursor: pointer;"><path id="kity_path_133" fill="white" stroke="gray" d="M350.5,458.5A6,6,0,1,1,338.5,458.5A6,6,0,1,1,350.5,458.5"></path><path id="kity_path_134" fill="none" stroke="gray" d="M340,458.5L349,458.5"></path></g><path id="node_outline14" fill="none" stroke="none" d="M355.5,447.5h86a5,5,0,0,1,5,5v12a5,5,0,0,1,-5,5h-86a5,5,0,0,1,-5,-5v-12a5,5,0,0,1,5,-5z" stroke-width="3"></path><g id="node_text14" fill="black"><text id="kity_text_130" text-rendering="inherit" font-size="12" dy=".8em" y="452.5" x="360.5">Object.seal()</text></g></g><g id="minder_node15"><g id="node_expander14" style="cursor: pointer;"><path id="kity_path_141" fill="white" stroke="gray" d="M350.5,510.5A6,6,0,1,1,338.5,510.5A6,6,0,1,1,350.5,510.5"></path><path id="kity_path_142" fill="none" stroke="gray" d="M340,510.5L349,510.5"></path></g><path id="node_outline15" fill="none" stroke="none" d="M355.5,499.5h110a5,5,0,0,1,5,5v12a5,5,0,0,1,-5,5h-110a5,5,0,0,1,-5,-5v-12a5,5,0,0,1,5,-5z" stroke-width="3"></path><g id="node_text15" fill="black"><text id="kity_text_138" text-rendering="inherit" font-size="12" dy=".8em" y="504.5" x="360.5">Object.isSealed()</text></g></g><g id="minder_node18"><g id="node_expander17" style="cursor: pointer;"><path id="kity_path_165" fill="white" stroke="gray" d="M350.5,562.5A6,6,0,1,1,338.5,562.5A6,6,0,1,1,350.5,562.5"></path><path id="kity_path_166" fill="none" stroke="gray" d="M340,562.5L349,562.5"></path></g><path id="node_outline18" fill="none" stroke="none" d="M355.5,551.5h167a5,5,0,0,1,5,5v12a5,5,0,0,1,-5,5h-167a5,5,0,0,1,-5,-5v-12a5,5,0,0,1,5,-5z" stroke-width="3"></path><g id="node_text18" fill="black"><text id="kity_text_162" text-rendering="inherit" font-size="12" dy=".8em" y="556.5" x="360.5">Object.preventExtensions()</text></g></g><g id="minder_node19"><g id="node_expander18" style="cursor: pointer;"><path id="kity_path_173" fill="white" stroke="gray" d="M350.5,614.5A6,6,0,1,1,338.5,614.5A6,6,0,1,1,350.5,614.5"></path><path id="kity_path_174" fill="none" stroke="gray" d="M340,614.5L349,614.5"></path></g><path id="node_outline19" fill="none" stroke="none" d="M355.5,603.5h127a5,5,0,0,1,5,5v12a5,5,0,0,1,-5,5h-127a5,5,0,0,1,-5,-5v-12a5,5,0,0,1,5,-5z" stroke-width="3"></path><g id="node_text19" fill="black"><text id="kity_text_170" text-rendering="inherit" font-size="12" dy=".8em" y="608.5" x="360.5">Object.isExtensible()</text></g></g><g id="minder_node20"><g id="node_expander19" style="cursor: pointer;"><path id="kity_path_181" fill="white" stroke="gray" d="M350.5,666.5A6,6,0,1,1,338.5,666.5A6,6,0,1,1,350.5,666.5"></path><path id="kity_path_182" fill="none" stroke="gray" d="M340,666.5L349,666.5"></path></g><path id="node_outline20" fill="none" stroke="none" d="M355.5,655.5h70a5,5,0,0,1,5,5v12a5,5,0,0,1,-5,5h-70a5,5,0,0,1,-5,-5v-12a5,5,0,0,1,5,-5z" stroke-width="3"></path><g id="node_text20" fill="black"><text id="kity_text_178" text-rendering="inherit" font-size="12" dy=".8em" y="660.5" x="360.5">Object.is()</text></g></g><g id="minder_node21"><g id="node_expander20" style="cursor: pointer;"><path id="kity_path_189" fill="white" stroke="gray" d="M350.5,406.5A6,6,0,1,1,338.5,406.5A6,6,0,1,1,350.5,406.5"></path><path id="kity_path_190" fill="none" stroke="gray" d="M340,406.5L349,406.5"></path></g><path id="node_outline21" fill="none" stroke="none" d="M355.5,395.5h107a5,5,0,0,1,5,5v12a5,5,0,0,1,-5,5h-107a5,5,0,0,1,-5,-5v-12a5,5,0,0,1,5,-5z" stroke-width="3"></path><g id="node_text21" fill="black"><text id="kity_text_186" text-rendering="inherit" font-size="12" dy=".8em" y="400.5" x="360.5">Object.isFrozen()</text></g></g><g id="minder_node22"><g id="node_expander21" style="cursor: pointer;" display="none"><path id="kity_path_197" fill="white" stroke="gray" d="M498.5,146.5A6,6,0,1,1,486.5,146.5A6,6,0,1,1,498.5,146.5"></path><path id="kity_path_198" fill="none" stroke="gray"></path></g><path id="node_outline22" fill="none" stroke="none" d="M503.5,135.5h442a5,5,0,0,1,5,5v12a5,5,0,0,1,-5,5h-442a5,5,0,0,1,-5,-5v-12a5,5,0,0,1,5,-5z" stroke-width="3"></path><g id="node_text22" fill="black"><text id="kity_text_194" text-rendering="inherit" font-size="12" dy=".8em" y="140.5" x="508.5">将所有可枚举属性的值从一个或多个源对象复制到目标对象。它将返回目标对象。</text></g></g><g id="minder_node23"><g id="node_expander22" style="cursor: pointer;"><path id="kity_path_205" fill="white" stroke="gray" d="M350.5,250.5A6,6,0,1,1,338.5,250.5A6,6,0,1,1,350.5,250.5"></path><path id="kity_path_206" fill="none" stroke="gray" d="M340,250.5L349,250.5"></path></g><path id="node_outline23" fill="none" stroke="none" d="M355.5,239.5h149a5,5,0,0,1,5,5v12a5,5,0,0,1,-5,5h-149a5,5,0,0,1,-5,-5v-12a5,5,0,0,1,5,-5z" stroke-width="3"></path><g id="node_text23" fill="black"><text id="kity_text_202" text-rendering="inherit" font-size="12" dy=".8em" y="244.5" x="360.5">Object.defineProperty()</text></g></g><g id="minder_node24"><g id="node_expander23" style="cursor: pointer;" display="none"><path id="kity_path_213" fill="white" stroke="gray" d="M502.5,198.5A6,6,0,1,1,490.5,198.5A6,6,0,1,1,502.5,198.5"></path><path id="kity_path_214" fill="none" stroke="gray"></path></g><path id="node_outline24" fill="none" stroke="none" d="M507.5,187.5h250a5,5,0,0,1,5,5v12a5,5,0,0,1,-5,5h-250a5,5,0,0,1,-5,-5v-12a5,5,0,0,1,5,-5z" stroke-width="3"></path><g id="node_text24" fill="black"><text id="kity_text_210" text-rendering="inherit" font-size="12" dy=".8em" y="192.5" x="512.5">使用指定的原型对象和属性创建一个新对象。</text></g></g><g id="minder_node25"><g id="node_expander24" style="cursor: pointer;"><path id="kity_path_221" fill="white" stroke="gray" d="M350.5,302.5A6,6,0,1,1,338.5,302.5A6,6,0,1,1,350.5,302.5"></path><path id="kity_path_222" fill="none" stroke="gray" d="M340,302.5L349,302.5"></path></g><path id="node_outline25" fill="none" stroke="none" d="M355.5,291.5h157a5,5,0,0,1,5,5v12a5,5,0,0,1,-5,5h-157a5,5,0,0,1,-5,-5v-12a5,5,0,0,1,5,-5z" stroke-width="3"></path><g id="node_text25" fill="black"><text id="kity_text_218" text-rendering="inherit" font-size="12" dy=".8em" y="296.5" x="360.5">Object.defineProperties()</text></g></g><g id="minder_node26"><g id="node_expander25" style="cursor: pointer;" display="none"><path id="kity_path_229" fill="white" stroke="gray" d="M557.5,302.5A6,6,0,1,1,545.5,302.5A6,6,0,1,1,557.5,302.5"></path><path id="kity_path_230" fill="none" stroke="gray"></path></g><path id="node_outline26" fill="none" stroke="none" d="M562.5,291.5h250a5,5,0,0,1,5,5v12a5,5,0,0,1,-5,5h-250a5,5,0,0,1,-5,-5v-12a5,5,0,0,1,5,-5z" stroke-width="3"></path><g id="node_text26" fill="black"><text id="kity_text_226" text-rendering="inherit" font-size="12" dy=".8em" y="296.5" x="567.5">给对象添加多个属性并分别指定它们的配置。</text></g></g><g id="minder_node27"><g id="node_expander26" style="cursor: pointer;" display="none"><path id="kity_path_237" fill="white" stroke="gray" d="M549.5,250.5A6,6,0,1,1,537.5,250.5A6,6,0,1,1,549.5,250.5"></path><path id="kity_path_238" fill="none" stroke="gray"></path></g><path id="node_outline27" fill="none" stroke="none" d="M554.5,239.5h238a5,5,0,0,1,5,5v12a5,5,0,0,1,-5,5h-238a5,5,0,0,1,-5,-5v-12a5,5,0,0,1,5,-5z" stroke-width="3"></path><g id="node_text27" fill="black"><text id="kity_text_234" text-rendering="inherit" font-size="12" dy=".8em" y="244.5" x="559.5">给对象添加一个属性并指定该属性的配置。</text></g></g><g id="minder_node29"><g id="node_expander28" style="cursor: pointer;" display="none"><path id="kity_path_253" fill="white" stroke="gray" d="M499.5,354.5A6,6,0,1,1,487.5,354.5A6,6,0,1,1,499.5,354.5"></path><path id="kity_path_254" fill="none" stroke="gray"></path></g><path id="node_outline29" fill="none" stroke="none" d="M504.5,343.5h262a5,5,0,0,1,5,5v12a5,5,0,0,1,-5,5h-262a5,5,0,0,1,-5,-5v-12a5,5,0,0,1,5,-5z" stroke-width="3"></path><g id="node_text29" fill="black"><text id="kity_text_250" text-rendering="inherit" font-size="12" dy=".8em" y="348.5" x="509.5">冻结对象：其他代码不能删除或更改任何属性。</text></g></g><g id="minder_node30"><g id="node_expander29" style="cursor: pointer;" display="none"><path id="kity_path_261" fill="white" stroke="gray" d="M507.5,406.5A6,6,0,1,1,495.5,406.5A6,6,0,1,1,507.5,406.5"></path><path id="kity_path_262" fill="none" stroke="gray"></path></g><path id="node_outline30" fill="none" stroke="none" d="M512.5,395.5h142a5,5,0,0,1,5,5v12a5,5,0,0,1,-5,5h-142a5,5,0,0,1,-5,-5v-12a5,5,0,0,1,5,-5z" stroke-width="3"></path><g id="node_text30" fill="black"><text id="kity_text_258" text-rendering="inherit" font-size="12" dy=".8em" y="400.5" x="517.5">判断对象是否已经冻结。</text></g></g><g id="minder_node31"><g id="node_expander30" style="cursor: pointer;" display="none"><path id="kity_path_269" fill="white" stroke="gray" d="M486.5,458.5A6,6,0,1,1,474.5,458.5A6,6,0,1,1,486.5,458.5"></path><path id="kity_path_270" fill="none" stroke="gray"></path></g><path id="node_outline31" fill="none" stroke="none" d="M491.5,447.5h562a5,5,0,0,1,5,5v12a5,5,0,0,1,-5,5h-562a5,5,0,0,1,-5,-5v-12a5,5,0,0,1,5,-5z" stroke-width="3"></path><g id="node_text31" fill="black"><text id="kity_text_266" text-rendering="inherit" font-size="12" dy=".8em" y="452.5" x="496.5">密封一个对象，阻止添加新属性并将所有现有属性标记为不可配置。当前属性的值只要可写就可以改变。</text></g></g><g id="minder_node32"><g id="node_expander31" style="cursor: pointer;" display="none"><path id="kity_path_277" fill="white" stroke="gray" d="M510.5,510.5A6,6,0,1,1,498.5,510.5A6,6,0,1,1,510.5,510.5"></path><path id="kity_path_278" fill="none" stroke="gray"></path></g><path id="node_outline32" fill="none" stroke="none" d="M515.5,499.5h154a5,5,0,0,1,5,5v12a5,5,0,0,1,-5,5h-154a5,5,0,0,1,-5,-5v-12a5,5,0,0,1,5,-5z" stroke-width="3"></path><g id="node_text32" fill="black"><text id="kity_text_274" text-rendering="inherit" font-size="12" dy=".8em" y="504.5" x="520.5">判断一个对象是否被密封。</text></g></g><g id="minder_node33"><g id="node_expander32" style="cursor: pointer;" display="none"><path id="kity_path_285" fill="white" stroke="gray" d="M567.5,562.5A6,6,0,1,1,555.5,562.5A6,6,0,1,1,567.5,562.5"></path><path id="kity_path_286" fill="none" stroke="gray"></path></g><path id="node_outline33" fill="none" stroke="none" d="M572.5,551.5h334a5,5,0,0,1,5,5v12a5,5,0,0,1,-5,5h-334a5,5,0,0,1,-5,-5v-12a5,5,0,0,1,5,-5z" stroke-width="3"></path><g id="node_text33" fill="black"><text id="kity_text_282" text-rendering="inherit" font-size="12" dy=".8em" y="556.5" x="577.5">让一个对象变的不可扩展，也就是永远不能再添加新的属性。</text></g></g><g id="minder_node34"><g id="node_expander33" style="cursor: pointer;" display="none"><path id="kity_path_293" fill="white" stroke="gray" d="M527.5,614.5A6,6,0,1,1,515.5,614.5A6,6,0,1,1,527.5,614.5"></path><path id="kity_path_294" fill="none" stroke="gray"></path></g><path id="node_outline34" fill="none" stroke="none" d="M532.5,603.5h370a5,5,0,0,1,5,5v12a5,5,0,0,1,-5,5h-370a5,5,0,0,1,-5,-5v-12a5,5,0,0,1,5,-5z" stroke-width="3"></path><g id="node_text34" fill="black"><text id="kity_text_290" text-rendering="inherit" font-size="12" dy=".8em" y="608.5" x="537.5">判断一个对象是否是可扩展的（是否可以在它上面添加新的属性）。</text></g></g><g id="minder_node35"><g id="node_expander34" style="cursor: pointer;"><path id="kity_path_301" fill="white" stroke="gray" d="M350.5,718.5A6,6,0,1,1,338.5,718.5A6,6,0,1,1,350.5,718.5"></path><path id="kity_path_302" fill="none" stroke="gray" d="M340,718.5L349,718.5"></path></g><path id="node_outline35" fill="none" stroke="none" d="M355.5,707.5h88a5,5,0,0,1,5,5v12a5,5,0,0,1,-5,5h-88a5,5,0,0,1,-5,-5v-12a5,5,0,0,1,5,-5z" stroke-width="3"></path><g id="node_text35" fill="black"><text id="kity_text_298" text-rendering="inherit" font-size="12" dy=".8em" y="712.5" x="360.5">Object.keys()</text></g></g><g id="minder_node36"><g id="node_expander35" style="cursor: pointer;" display="none"><path id="kity_path_309" fill="white" stroke="gray" d="M470.5,666.5A6,6,0,1,1,458.5,666.5A6,6,0,1,1,470.5,666.5"></path><path id="kity_path_310" fill="none" stroke="gray"></path></g><path id="node_outline36" fill="none" stroke="none" d="M475.5,655.5h354a5,5,0,0,1,5,5v12a5,5,0,0,1,-5,5h-354a5,5,0,0,1,-5,-5v-12a5,5,0,0,1,5,-5z" stroke-width="3"></path><g id="node_text36" fill="black"><text id="kity_text_306" text-rendering="inherit" font-size="12" dy=".8em" y="660.5" x="480.5">比较两个值是否相同。所有 NaN 值都相等（这与==和===不同）</text></g></g><g id="minder_node37"><g id="node_expander36" style="cursor: pointer;" display="none"><path id="kity_path_317" fill="white" stroke="gray" d="M488.5,718.5A6,6,0,1,1,476.5,718.5A6,6,0,1,1,488.5,718.5"></path><path id="kity_path_318" fill="none" stroke="gray"></path></g><path id="node_outline37" fill="none" stroke="none" d="M493.5,707.5h310a5,5,0,0,1,5,5v12a5,5,0,0,1,-5,5h-310a5,5,0,0,1,-5,-5v-12a5,5,0,0,1,5,-5z" stroke-width="3"></path><g id="node_text37" fill="black"><text id="kity_text_314" text-rendering="inherit" font-size="12" dy=".8em" y="712.5" x="498.5">返回一个包含所有给定对象自身可枚举属性名称的数组。</text></g></g><g id="minder_node38"><g id="node_expander37" style="cursor: pointer;"><path id="kity_path_325" fill="white" stroke="gray" d="M350.5,770.5A6,6,0,1,1,338.5,770.5A6,6,0,1,1,350.5,770.5"></path><path id="kity_path_326" fill="none" stroke="gray" d="M340,770.5L349,770.5"></path></g><path id="node_outline38" fill="none" stroke="none" d="M355.5,759.5h100a5,5,0,0,1,5,5v12a5,5,0,0,1,-5,5h-100a5,5,0,0,1,-5,-5v-12a5,5,0,0,1,5,-5z" stroke-width="3"></path><g id="node_text38" fill="black"><text id="kity_text_322" text-rendering="inherit" font-size="12" dy=".8em" y="764.5" x="360.5">Object.values()</text></g></g><g id="minder_node39"><g id="node_expander38" style="cursor: pointer;" display="none"><path id="kity_path_333" fill="white" stroke="gray" d="M500.5,770.5A6,6,0,1,1,488.5,770.5A6,6,0,1,1,500.5,770.5"></path><path id="kity_path_334" fill="none" stroke="gray"></path></g><path id="node_outline39" fill="none" stroke="none" d="M505.5,759.5h202a5,5,0,0,1,5,5v12a5,5,0,0,1,-5,5h-202a5,5,0,0,1,-5,-5v-12a5,5,0,0,1,5,-5z" stroke-width="3"></path><g id="node_text39" fill="black"><text id="kity_text_330" text-rendering="inherit" font-size="12" dy=".8em" y="764.5" x="510.5">返回给定对象自身可枚举值的数组。</text></g></g><g id="minder_node40"><g id="node_expander39" style="cursor: pointer;"><path id="kity_path_341" fill="white" stroke="gray" d="M350.5,822.5A6,6,0,1,1,338.5,822.5A6,6,0,1,1,350.5,822.5"></path><path id="kity_path_342" fill="none" stroke="gray" d="M340,822.5L349,822.5"></path></g><path id="node_outline40" fill="none" stroke="none" d="M355.5,811.5h101a5,5,0,0,1,5,5v12a5,5,0,0,1,-5,5h-101a5,5,0,0,1,-5,-5v-12a5,5,0,0,1,5,-5z" stroke-width="3"></path><g id="node_text40" fill="black"><text id="kity_text_338" text-rendering="inherit" font-size="12" dy=".8em" y="816.5" x="360.5">Object.entries()</text></g></g><g id="minder_node41"><g id="node_expander40" style="cursor: pointer;"><path id="kity_path_349" fill="white" stroke="gray" d="M350.5,874.5A6,6,0,1,1,338.5,874.5A6,6,0,1,1,350.5,874.5"></path><path id="kity_path_350" fill="none" stroke="gray" d="M340,874.5L349,874.5"></path></g><path id="node_outline41" fill="none" stroke="none" d="M355.5,863.5h218a5,5,0,0,1,5,5v12a5,5,0,0,1,-5,5h-218a5,5,0,0,1,-5,-5v-12a5,5,0,0,1,5,-5z" stroke-width="3"></path><g id="node_text41" fill="black"><text id="kity_text_346" text-rendering="inherit" font-size="12" dy=".8em" y="868.5" x="360.5">Object.getOwnPropertyDescriptor()</text></g></g><g id="minder_node42"><g id="node_expander41" style="cursor: pointer;" display="none"><path id="kity_path_357" fill="white" stroke="gray" d="M501.5,822.5A6,6,0,1,1,489.5,822.5A6,6,0,1,1,501.5,822.5"></path><path id="kity_path_358" fill="none" stroke="gray"></path></g><path id="node_outline42" fill="none" stroke="none" d="M506.5,811.5h281a5,5,0,0,1,5,5v12a5,5,0,0,1,-5,5h-281a5,5,0,0,1,-5,-5v-12a5,5,0,0,1,5,-5z" stroke-width="3"></path><g id="node_text42" fill="black"><text id="kity_text_354" text-rendering="inherit" font-size="12" dy=".8em" y="816.5" x="511.5">返回给定对象自身可枚举属性的[key, value]数组。</text></g></g><g id="minder_node43"><g id="node_expander42" style="cursor: pointer;" display="none"><path id="kity_path_365" fill="white" stroke="gray" d="M618.5,874.5A6,6,0,1,1,606.5,874.5A6,6,0,1,1,618.5,874.5"></path><path id="kity_path_366" fill="none" stroke="gray"></path></g><path id="node_outline43" fill="none" stroke="none" d="M623.5,863.5h274a5,5,0,0,1,5,5v12a5,5,0,0,1,-5,5h-274a5,5,0,0,1,-5,-5v-12a5,5,0,0,1,5,-5z" stroke-width="3"></path><g id="node_text43" fill="black"><text id="kity_text_362" text-rendering="inherit" font-size="12" dy=".8em" y="868.5" x="628.5">返回指定对象上一个自有属性对应的属性描述符。</text></g></g><g id="minder_node44"><g id="node_expander43" style="cursor: pointer;"><path id="kity_path_373" fill="white" stroke="gray" d="M350.5,926.5A6,6,0,1,1,338.5,926.5A6,6,0,1,1,350.5,926.5"></path><path id="kity_path_374" fill="none" stroke="gray" d="M340,926.5L349,926.5"></path></g><path id="node_outline44" fill="none" stroke="none" d="M355.5,915.5h200a5,5,0,0,1,5,5v12a5,5,0,0,1,-5,5h-200a5,5,0,0,1,-5,-5v-12a5,5,0,0,1,5,-5z" stroke-width="3"></path><g id="node_text44" fill="black"><text id="kity_text_370" text-rendering="inherit" font-size="12" dy=".8em" y="920.5" x="360.5">Object.getOwnPropertyNames()</text></g></g><g id="minder_node45"><g id="node_expander44" style="cursor: pointer;" display="none"><path id="kity_path_381" fill="white" stroke="gray" d="M600.5,926.5A6,6,0,1,1,588.5,926.5A6,6,0,1,1,600.5,926.5"></path><path id="kity_path_382" fill="none" stroke="gray"></path></g><path id="node_outline45" fill="none" stroke="none" d="M605.5,915.5h382a5,5,0,0,1,5,5v12a5,5,0,0,1,-5,5h-382a5,5,0,0,1,-5,-5v-12a5,5,0,0,1,5,-5z" stroke-width="3"></path><g id="node_text45" fill="black"><text id="kity_text_378" text-rendering="inherit" font-size="12" dy=".8em" y="920.5" x="610.5">返回一个数组，它包含了指定对象所有的可枚举或不可枚举的属性名。</text></g></g><g id="minder_node47"><g id="node_expander46" style="cursor: pointer;"><path id="kity_path_397" fill="white" stroke="gray" d="M350.5,978.5A6,6,0,1,1,338.5,978.5A6,6,0,1,1,350.5,978.5"></path><path id="kity_path_398" fill="none" stroke="gray" d="M340,978.5L349,978.5"></path></g><path id="node_outline47" fill="none" stroke="none" d="M355.5,967.5h206a5,5,0,0,1,5,5v12a5,5,0,0,1,-5,5h-206a5,5,0,0,1,-5,-5v-12a5,5,0,0,1,5,-5z" stroke-width="3"></path><g id="node_text47" fill="black"><text id="kity_text_394" text-rendering="inherit" font-size="12" dy=".8em" y="972.5" x="360.5">Object.getOwnPropertySymbols()</text></g></g><g id="minder_node48"><g id="node_expander47" style="cursor: pointer;"><path id="kity_path_405" fill="white" stroke="gray" d="M350.5,1039.5A6,6,0,1,1,338.5,1039.5A6,6,0,1,1,350.5,1039.5"></path><path id="kity_path_406" fill="none" stroke="gray" d="M340,1039.5L349,1039.5"></path></g><path id="node_outline48" fill="none" stroke="none" d="M355.5,1028.5h151a5,5,0,0,1,5,5v12a5,5,0,0,1,-5,5h-151a5,5,0,0,1,-5,-5v-12a5,5,0,0,1,5,-5z" stroke-width="3"></path><g id="node_text48" fill="black"><text id="kity_text_402" text-rendering="inherit" font-size="12" dy=".8em" y="1033.5" x="360.5">Object.setPrototypeOf()</text></g></g><g id="minder_node49"><g id="node_expander48" style="cursor: pointer;" display="none"><path id="kity_path_413" fill="white" stroke="gray" d="M606.5,978.5A6,6,0,1,1,594.5,978.5A6,6,0,1,1,606.5,978.5"></path><path id="kity_path_414" fill="none" stroke="gray"></path></g><path id="node_outline49" fill="none" stroke="none" d="M611.5,967.5h286a5,5,0,0,1,5,5v12a5,5,0,0,1,-5,5h-286a5,5,0,0,1,-5,-5v-12a5,5,0,0,1,5,-5z" stroke-width="3"></path><g id="node_text49" fill="black"><text id="kity_text_410" text-rendering="inherit" font-size="12" dy=".8em" y="972.5" x="616.5">返回一个给定对象自身的所有 Symbol&#xa0;属性的数组。</text></g></g><g id="minder_node50"><g id="node_expander49" style="cursor: pointer;" display="none"><path id="kity_path_421" fill="white" stroke="gray" d="M551.5,1039.5A6,6,0,1,1,539.5,1039.5A6,6,0,1,1,551.5,1039.5"></path><path id="kity_path_422" fill="none" stroke="gray"></path></g><path id="node_outline50" fill="none" stroke="none" d="M556.5,1019.5h426a5,5,0,0,1,5,5v30a5,5,0,0,1,-5,5h-426a5,5,0,0,1,-5,-5v-30a5,5,0,0,1,5,-5z" stroke-width="3"></path><g id="node_text50" fill="black"><text id="kity_text_418" text-rendering="inherit" font-size="12" dy=".8em" y="1024.5" x="561.5">设置一个指定的对象的原型 ( 即, 内部[[Prototype]]属性）到另一个对象或 &#xa0;null</text><text id="kity_text_423" text-rendering="inherit" font-size="12" dy=".8em" y="1042.5" x="561.5">。</text></g></g><g id="minder_node51"><g id="node_expander50" style="cursor: pointer;"><path id="kity_path_430" fill="white" stroke="gray" d="M241.5,1213.5A6,6,0,1,1,229.5,1213.5A6,6,0,1,1,241.5,1213.5"></path><path id="kity_path_431" fill="none" stroke="gray" d="M231,1213.5L240,1213.5"></path></g><path id="node_outline51" fill="rgb(238, 243, 246)" stroke="rgb(115, 161, 191)" d="M245.5,1200.5h90a3,3,0,0,1,3,3v20a3,3,0,0,1,-3,3h-90a3,3,0,0,1,-3,-3v-20a3,3,0,0,1,3,-3z" stroke-width="1"></path><g id="node_text51" fill="black"><text id="kity_text_427" text-rendering="inherit" font-size="14" dy=".8em" y="1206.5" x="262.5">实例方法</text></g></g><g id="minder_node52"><g id="node_expander51" style="cursor: pointer;"><path id="kity_path_438" fill="white" stroke="gray" d="M378.5,1109.5A6,6,0,1,1,366.5,1109.5A6,6,0,1,1,378.5,1109.5"></path><path id="kity_path_439" fill="none" stroke="gray" d="M368,1109.5L377,1109.5"></path></g><path id="node_outline52" fill="none" stroke="none" d="M383.5,1098.5h137a5,5,0,0,1,5,5v12a5,5,0,0,1,-5,5h-137a5,5,0,0,1,-5,-5v-12a5,5,0,0,1,5,-5z" stroke-width="3"></path><g id="node_text52" fill="black"><text id="kity_text_435" text-rendering="inherit" font-size="12" dy=".8em" y="1103.5" x="388.5">obj.hasOwnProperty()</text></g></g><g id="minder_node53"><g id="node_expander52" style="cursor: pointer;"><path id="kity_path_446" fill="white" stroke="gray" d="M378.5,1161.5A6,6,0,1,1,366.5,1161.5A6,6,0,1,1,378.5,1161.5"></path><path id="kity_path_447" fill="none" stroke="gray" d="M368,1161.5L377,1161.5"></path></g><path id="node_outline53" fill="none" stroke="none" d="M383.5,1150.5h122a5,5,0,0,1,5,5v12a5,5,0,0,1,-5,5h-122a5,5,0,0,1,-5,-5v-12a5,5,0,0,1,5,-5z" stroke-width="3"></path><g id="node_text53" fill="black"><text id="kity_text_443" text-rendering="inherit" font-size="12" dy=".8em" y="1155.5" x="388.5">obj. isPrototypeOf()</text></g></g><g id="minder_node54"><g id="node_expander53" style="cursor: pointer;"><path id="kity_path_454" fill="white" stroke="gray" d="M378.5,1213.5A6,6,0,1,1,366.5,1213.5A6,6,0,1,1,378.5,1213.5"></path><path id="kity_path_455" fill="none" stroke="gray" d="M368,1213.5L377,1213.5"></path></g><path id="node_outline54" fill="none" stroke="none" d="M383.5,1202.5h168a5,5,0,0,1,5,5v12a5,5,0,0,1,-5,5h-168a5,5,0,0,1,-5,-5v-12a5,5,0,0,1,5,-5z" stroke-width="3"></path><g id="node_text54" fill="black"><text id="kity_text_451" text-rendering="inherit" font-size="12" dy=".8em" y="1207.5" x="388.5">obj.propertyIsEnumerable()</text></g></g><g id="minder_node55"><g id="node_expander54" style="cursor: pointer;"><path id="kity_path_462" fill="white" stroke="gray" d="M378.5,1265.5A6,6,0,1,1,366.5,1265.5A6,6,0,1,1,378.5,1265.5"></path><path id="kity_path_463" fill="none" stroke="gray" d="M368,1265.5L377,1265.5"></path></g><path id="node_outline55" fill="none" stroke="none" d="M383.5,1254.5h124a5,5,0,0,1,5,5v12a5,5,0,0,1,-5,5h-124a5,5,0,0,1,-5,-5v-12a5,5,0,0,1,5,-5z" stroke-width="3"></path><g id="node_text55" fill="black"><text id="kity_text_459" text-rendering="inherit" font-size="12" dy=".8em" y="1259.5" x="388.5">obj.toLocaleString()</text></g></g><g id="minder_node56"><g id="node_expander55" style="cursor: pointer;" display="none"><path id="kity_path_470" fill="white" stroke="gray" d="M565.5,1109.5A6,6,0,1,1,553.5,1109.5A6,6,0,1,1,565.5,1109.5"></path><path id="kity_path_471" fill="none" stroke="gray"></path></g><path id="node_outline56" fill="none" stroke="none" d="M570.5,1098.5h322a5,5,0,0,1,5,5v12a5,5,0,0,1,-5,5h-322a5,5,0,0,1,-5,-5v-12a5,5,0,0,1,5,-5z" stroke-width="3"></path><g id="node_text56" fill="black"><text id="kity_text_467" text-rendering="inherit" font-size="12" dy=".8em" y="1103.5" x="575.5">返回一个布尔值，指示对象自身属性中是否具有指定的属性</text></g></g><g id="minder_node57"><g id="node_expander56" style="cursor: pointer;" display="none"><path id="kity_path_478" fill="white" stroke="gray" d="M550.5,1161.5A6,6,0,1,1,538.5,1161.5A6,6,0,1,1,550.5,1161.5"></path><path id="kity_path_479" fill="none" stroke="gray"></path></g><path id="node_outline57" fill="none" stroke="none" d="M555.5,1150.5h274a5,5,0,0,1,5,5v12a5,5,0,0,1,-5,5h-274a5,5,0,0,1,-5,-5v-12a5,5,0,0,1,5,-5z" stroke-width="3"></path><g id="node_text57" fill="black"><text id="kity_text_475" text-rendering="inherit" font-size="12" dy=".8em" y="1155.5" x="560.5">测试一个对象是否存在于另一个对象的原型链上。</text></g></g><g id="minder_node58"><g id="node_expander57" style="cursor: pointer;" display="none"><path id="kity_path_486" fill="white" stroke="gray" d="M596.5,1213.5A6,6,0,1,1,584.5,1213.5A6,6,0,1,1,596.5,1213.5"></path><path id="kity_path_487" fill="none" stroke="gray"></path></g><path id="node_outline58" fill="none" stroke="none" d="M601.5,1202.5h262a5,5,0,0,1,5,5v12a5,5,0,0,1,-5,5h-262a5,5,0,0,1,-5,-5v-12a5,5,0,0,1,5,-5z" stroke-width="3"></path><g id="node_text58" fill="black"><text id="kity_text_483" text-rendering="inherit" font-size="12" dy=".8em" y="1207.5" x="606.5">返回一个布尔值，表示指定的属性是否可枚举。</text></g></g><g id="minder_node59"><g id="node_expander58" style="cursor: pointer;" display="none"><path id="kity_path_494" fill="white" stroke="gray" d="M552.5,1265.5A6,6,0,1,1,540.5,1265.5A6,6,0,1,1,552.5,1265.5"></path><path id="kity_path_495" fill="none" stroke="gray"></path></g><path id="node_outline59" fill="none" stroke="none" d="M557.5,1254.5h178a5,5,0,0,1,5,5v12a5,5,0,0,1,-5,5h-178a5,5,0,0,1,-5,-5v-12a5,5,0,0,1,5,-5z" stroke-width="3"></path><g id="node_text59" fill="black"><text id="kity_text_491" text-rendering="inherit" font-size="12" dy=".8em" y="1259.5" x="562.5">返回一个该对象的字符串表示。</text></g></g><g id="minder_node60"><g id="node_expander59" style="cursor: pointer;"><path id="kity_path_502" fill="white" stroke="gray" d="M378.5,1317.5A6,6,0,1,1,366.5,1317.5A6,6,0,1,1,378.5,1317.5"></path><path id="kity_path_503" fill="none" stroke="gray" d="M368,1317.5L377,1317.5"></path></g><path id="node_outline60" fill="none" stroke="none" d="M383.5,1306.5h83a5,5,0,0,1,5,5v12a5,5,0,0,1,-5,5h-83a5,5,0,0,1,-5,-5v-12a5,5,0,0,1,5,-5z" stroke-width="3"></path><g id="node_text60" fill="black"><text id="kity_text_499" text-rendering="inherit" font-size="12" dy=".8em" y="1311.5" x="388.5">obj.tostring()</text></g></g><g id="minder_node61"><g id="node_expander60" style="cursor: pointer;" display="none"><path id="kity_path_510" fill="white" stroke="gray" d="M511.5,1317.5A6,6,0,1,1,499.5,1317.5A6,6,0,1,1,511.5,1317.5"></path><path id="kity_path_511" fill="none" stroke="gray"></path></g><path id="node_outline61" fill="none" stroke="none" d="M516.5,1306.5h178a5,5,0,0,1,5,5v12a5,5,0,0,1,-5,5h-178a5,5,0,0,1,-5,-5v-12a5,5,0,0,1,5,-5z" stroke-width="3"></path><g id="node_text61" fill="black"><text id="kity_text_507" text-rendering="inherit" font-size="12" dy=".8em" y="1311.5" x="521.5">返回一个表示该对象的字符串。</text></g></g></g></g></svg>