<svg id="kity_svg_6" xmlns="http://www.w3.org/2000/svg" xmlns:xlink="http://www.w3.org/1999/xlink" version="1.1" width="1058" height="1343" style="background: rgb(251, 251, 251); visibility: visible;" viewBox="0 0 1058 1343"><defs id="kity_defs_7"><linearGradient id="kity_linearGradient_17" x1="0" y1="0" x2="0" y2="1"><stop id="kity_stop_18" offset="0" stop-color="rgb(255, 255, 255)"></stop><stop id="kity_stop_19" offset="1" stop-color="rgb(204, 204, 204)"></stop></linearGradient><marker id="kity_marker_4" orient="auto" refX="6" refY="0" viewBox="-7 -7 14 14" markerWidth="7" markerHeight="7" markerUnits="userSpaceOnUse"><path id="kity_path_5" fill="rgb(115, 161, 191)" stroke="none" d="M6,0A6,6,0,1,1,-6,0A6,6,0,1,1,6,0"></path></marker><marker id="kity_marker_2" orient="auto" refX="6" refY="0" viewBox="-7 -7 14 14" markerWidth="7" markerHeight="7" markerUnits="userSpaceOnUse"><path id="kity_path_3" fill="rgb(115, 161, 191)" stroke="none" d="M6,0A6,6,0,1,1,-6,0A6,6,0,1,1,6,0"></path></marker></defs><g id="kity_g_8"><g id="minder1" text-rendering="geometricPrecision"><g id="minder_connect_group1"><path id="kity_path_31" fill="none" stroke="rgb(115, 161, 191)" stroke-width="1" d="M521.5,722.5A174,457,0,0,1,695.5,265.5"></path><path id="kity_path_39" fill="none" stroke="rgb(115, 161, 191)" stroke-width="1" d="M793.5,265.5C808.5,265.5,808.5,45.5,823.5,45.5L927.5,45.5"></path><path id="kity_path_47" fill="none" stroke="rgb(115, 161, 191)" stroke-width="1" d="M793.5,265.5C808.5,265.5,808.5,97.5,823.5,97.5L925.5,97.5"></path><path id="kity_path_55" fill="none" stroke="rgb(115, 161, 191)" stroke-width="1" d="M793.5,265.5C808.5,265.5,808.5,149.5,823.5,149.5L913.5,149.5"></path><path id="kity_path_63" fill="none" stroke="rgb(115, 161, 191)" stroke-width="1" d="M793.5,265.5C808.5,265.5,808.5,201.5,823.5,201.5L926.5,201.5"></path><path id="kity_path_71" fill="none" stroke="rgb(115, 161, 191)" stroke-width="1" d="M793.5,265.5C808.5,265.5,808.5,253.5,823.5,253.5L901.5,253.5"></path><path id="kity_path_79" fill="none" stroke="rgb(115, 161, 191)" stroke-width="1" d="M793.5,265.5C808.5,265.5,808.5,305.5,823.5,305.5L892.5,305.5"></path><path id="kity_path_87" fill="none" stroke="rgb(115, 161, 191)" stroke-width="1" d="M793.5,265.5C808.5,265.5,808.5,357.5,823.5,357.5L955.5,357.5"></path><path id="kity_path_95" fill="none" stroke="rgb(115, 161, 191)" stroke-width="1" d="M793.5,265.5C808.5,265.5,808.5,409.5,823.5,409.5L961.5,409.5"></path><path id="kity_path_103" fill="none" stroke="rgb(115, 161, 191)" stroke-width="1" d="M793.5,265.5C808.5,265.5,808.5,461.5,823.5,461.5L962.5,461.5"></path><path id="kity_path_111" fill="none" stroke="rgb(115, 161, 191)" stroke-width="1" d="M793.5,265.5C808.5,265.5,808.5,513.5,823.5,513.5L921.5,513.5"></path><path id="kity_path_119" fill="none" stroke="rgb(115, 161, 191)" stroke-width="1" d="M521.5,722.5A174,5,0,0,1,695.5,717.5"></path><path id="kity_path_127" fill="none" stroke="rgb(115, 161, 191)" stroke-width="1" d="M521.5,722.5A174,239,0,0,0,695.5,961.5"></path><path id="kity_path_135" fill="none" stroke="rgb(115, 161, 191)" stroke-width="1" d="M521.5,722.5A174,457,0,0,0,695.5,1179.5"></path><path id="kity_path_143" fill="none" stroke="rgb(115, 161, 191)" stroke-width="1" d="M521.5,722.5A174,192,0,0,0,347.5,530.5"></path><path id="kity_path_151" fill="none" stroke="rgb(115, 161, 191)" stroke-width="1" d="M521.5,722.5A174,26,0,0,0,347.5,696.5"></path><path id="kity_path_159" fill="none" stroke="rgb(115, 161, 191)" stroke-width="1" d="M521.5,722.5A174,192,0,0,1,347.5,914.5"></path><path id="kity_path_167" fill="none" stroke="rgb(115, 161, 191)" stroke-width="1" d="M779.5,717.5C794.5,717.5,794.5,575.5,809.5,575.5L891.5,575.5"></path><path id="kity_path_175" fill="none" stroke="rgb(115, 161, 191)" stroke-width="1" d="M779.5,717.5C794.5,717.5,794.5,627.5,809.5,627.5L1038.5,627.5"></path><path id="kity_path_183" fill="none" stroke="rgb(115, 161, 191)" stroke-width="1" d="M779.5,717.5C794.5,717.5,794.5,679.5,809.5,679.5L889.5,679.5"></path><path id="kity_path_191" fill="none" stroke="rgb(115, 161, 191)" stroke-width="1" d="M779.5,717.5C794.5,717.5,794.5,731.5,809.5,731.5L893.5,731.5"></path><path id="kity_path_199" fill="none" stroke="rgb(115, 161, 191)" stroke-width="1" d="M779.5,717.5C794.5,717.5,794.5,783.5,809.5,783.5L960.5,783.5"></path><path id="kity_path_207" fill="none" stroke="rgb(115, 161, 191)" stroke-width="1" d="M779.5,717.5C794.5,717.5,794.5,835.5,809.5,835.5L958.5,835.5"></path><path id="kity_path_223" fill="none" stroke="rgb(115, 161, 191)" stroke-width="1" d="M779.5,717.5C794.5,717.5,794.5,887.5,809.5,887.5L927.5,887.5"></path><path id="kity_path_231" fill="none" stroke="rgb(115, 161, 191)" stroke-width="1" d="M786.5,961.5C801.5,961.5,801.5,949.5,816.5,949.5L942.5,949.5"></path><path id="kity_path_239" fill="none" stroke="rgb(115, 161, 191)" stroke-width="1" d="M786.5,961.5C801.5,961.5,801.5,1001.5,816.5,1001.5L996.5,1001.5"></path><path id="kity_path_247" fill="none" stroke="rgb(115, 161, 191)" stroke-width="1" d="M263.5,530.5C248.5,530.5,248.5,518.5,233.5,518.5L75.5,518.5"></path><path id="kity_path_255" fill="none" stroke="rgb(115, 161, 191)" stroke-width="1" d="M263.5,530.5C248.5,530.5,248.5,570.5,233.5,570.5L20.5,570.5"></path><path id="kity_path_263" fill="none" stroke="rgb(115, 161, 191)" stroke-width="1" d="M277.5,696.5C262.5,696.5,262.5,632.5,247.5,632.5L169.5,632.5"></path><path id="kity_path_271" fill="none" stroke="rgb(115, 161, 191)" stroke-width="1" d="M277.5,696.5C262.5,696.5,262.5,684.5,247.5,684.5L136.5,684.5"></path><path id="kity_path_279" fill="none" stroke="rgb(115, 161, 191)" stroke-width="1" d="M277.5,696.5C262.5,696.5,262.5,736.5,247.5,736.5L106.5,736.5"></path><path id="kity_path_287" fill="none" stroke="rgb(115, 161, 191)" stroke-width="1" d="M277.5,696.5C262.5,696.5,262.5,788.5,247.5,788.5L32.5,788.5"></path><path id="kity_path_295" fill="none" stroke="rgb(115, 161, 191)" stroke-width="1" d="M280.5,914.5C265.5,914.5,265.5,850.5,250.5,850.5L90.5,850.5"></path><path id="kity_path_303" fill="none" stroke="rgb(115, 161, 191)" stroke-width="1" d="M280.5,914.5C265.5,914.5,265.5,902.5,250.5,902.5L114.5,902.5"></path><path id="kity_path_311" fill="none" stroke="rgb(115, 161, 191)" stroke-width="1" d="M280.5,914.5C265.5,914.5,265.5,954.5,250.5,954.5L92.5,954.5"></path><path id="kity_path_319" fill="none" stroke="rgb(115, 161, 191)" stroke-width="1" d="M280.5,914.5C265.5,914.5,265.5,1006.5,250.5,1006.5L145.5,1006.5"></path><path id="kity_path_335" fill="none" stroke="rgb(115, 161, 191)" stroke-width="1" d="M797.5,1179.5C812.5,1179.5,812.5,1063.5,827.5,1063.5L965.5,1063.5"></path><path id="kity_path_343" fill="none" stroke="rgb(115, 161, 191)" stroke-width="1" d="M797.5,1179.5C812.5,1179.5,812.5,1115.5,827.5,1115.5L1000.5,1115.5"></path><path id="kity_path_351" fill="none" stroke="rgb(115, 161, 191)" stroke-width="1" d="M797.5,1179.5C812.5,1179.5,812.5,1167.5,827.5,1167.5L976.5,1167.5"></path><path id="kity_path_359" fill="none" stroke="rgb(115, 161, 191)" stroke-width="1" d="M797.5,1179.5C812.5,1179.5,812.5,1219.5,827.5,1219.5L929.5,1219.5"></path><path id="kity_path_367" fill="none" stroke="rgb(115, 161, 191)" stroke-width="1" d="M797.5,1179.5C812.5,1179.5,812.5,1271.5,827.5,1271.5L935.5,1271.5"></path><path id="kity_path_375" fill="none" stroke="rgb(115, 161, 191)" stroke-width="1" d="M797.5,1179.5C812.5,1179.5,812.5,1323.5,827.5,1323.5L965.5,1323.5"></path></g><g id="minder_node1"><path id="kity_path_389" fill="rgba(0, 0, 0, .25)" stroke="none" d="M505.5,680.5h72a47,47,0,0,1,47,47v0a47,47,0,0,1,-47,47h-72a47,47,0,0,1,-47,-47v0a47,47,0,0,1,47,-47z" display="none"></path><path id="node_outline1" fill="rgb(115, 161, 191)" stroke="rgb(115, 161, 191)" d="M470.5,702.5h102a5,5,0,0,1,5,5v30a5,5,0,0,1,-5,5h-102a5,5,0,0,1,-5,-5v-30a5,5,0,0,1,5,-5z" stroke-width="3"></path><g id="node_text1" fill="white"><text id="kity_text_22" text-rendering="inherit" font-size="16" dy=".8em" y="714.5" x="489.5">性能优化</text></g></g><g id="kity_g_14" display="none"><path id="kity_path_15" fill="none" stroke="none" d="M489.5,722.5h0v0h0z"></path><path id="kity_path_16" fill="none" stroke="none"></path></g><g id="minder_node2"><path id="kity_path_382" fill="rgba(0, 0, 0, .25)" stroke="none" d="M706.5,256.5h94a5,5,0,0,1,5,5v18a5,5,0,0,1,-5,5h-94a5,5,0,0,1,-5,-5v-18a5,5,0,0,1,5,-5z" display="none"></path><g id="node_expander1" style="cursor: pointer;"><path id="kity_path_36" fill="white" stroke="gray" d="M696.5,265.5A6,6,0,1,1,684.5,265.5A6,6,0,1,1,696.5,265.5"></path><path id="kity_path_37" fill="none" stroke="gray" d="M686,265.5L695,265.5"></path></g><path id="node_outline2" fill="rgb(238, 243, 246)" stroke="rgb(115, 161, 191)" d="M700.5,252.5h90a3,3,0,0,1,3,3v20a3,3,0,0,1,-3,3h-90a3,3,0,0,1,-3,-3v-20a3,3,0,0,1,3,-3z" stroke-width="1"></path><g id="node_text2" fill="black"><text id="kity_text_33" text-rendering="inherit" font-size="14" dy=".8em" y="258.5" x="717.5">页面内容</text></g></g><g id="minder_node3"><g id="node_expander2" style="cursor: pointer;" display="none"><path id="kity_path_44" fill="white" stroke="gray" d="M833.5,31.5A6,6,0,1,1,821.5,31.5A6,6,0,1,1,833.5,31.5"></path><path id="kity_path_45" fill="none" stroke="gray"></path></g><path id="node_outline3" fill="none" stroke="none" d="M838.5,20.5h84a5,5,0,0,1,5,5v12a5,5,0,0,1,-5,5h-84a5,5,0,0,1,-5,-5v-12a5,5,0,0,1,5,-5z" stroke-width="3"></path><g id="node_text3" fill="black"><text id="kity_text_41" text-rendering="inherit" font-size="12" dy=".8em" y="25.5" x="843.5">减少HTTP请求</text></g></g><g id="minder_node4"><g id="node_expander3" style="cursor: pointer;" display="none"><path id="kity_path_52" fill="white" stroke="gray" d="M833.5,83.5A6,6,0,1,1,821.5,83.5A6,6,0,1,1,833.5,83.5"></path><path id="kity_path_53" fill="none" stroke="gray"></path></g><path id="node_outline4" fill="none" stroke="none" d="M838.5,72.5h82a5,5,0,0,1,5,5v12a5,5,0,0,1,-5,5h-82a5,5,0,0,1,-5,-5v-12a5,5,0,0,1,5,-5z" stroke-width="3"></path><g id="node_text4" fill="black"><text id="kity_text_49" text-rendering="inherit" font-size="12" dy=".8em" y="77.5" x="843.5">减少DNS查询</text></g></g><g id="minder_node5"><g id="node_expander4" style="cursor: pointer;" display="none"><path id="kity_path_60" fill="white" stroke="gray" d="M833.5,135.5A6,6,0,1,1,821.5,135.5A6,6,0,1,1,833.5,135.5"></path><path id="kity_path_61" fill="none" stroke="gray"></path></g><path id="node_outline5" fill="none" stroke="none" d="M838.5,124.5h70a5,5,0,0,1,5,5v12a5,5,0,0,1,-5,5h-70a5,5,0,0,1,-5,-5v-12a5,5,0,0,1,5,-5z" stroke-width="3"></path><g id="node_text5" fill="black"><text id="kity_text_57" text-rendering="inherit" font-size="12" dy=".8em" y="129.5" x="843.5">避免重定向</text></g></g><g id="minder_node6"><g id="node_expander5" style="cursor: pointer;" display="none"><path id="kity_path_68" fill="white" stroke="gray" d="M833.5,187.5A6,6,0,1,1,821.5,187.5A6,6,0,1,1,833.5,187.5"></path><path id="kity_path_69" fill="none" stroke="gray"></path></g><path id="node_outline6" fill="none" stroke="none" d="M838.5,176.5h83a5,5,0,0,1,5,5v12a5,5,0,0,1,-5,5h-83a5,5,0,0,1,-5,-5v-12a5,5,0,0,1,5,-5z" stroke-width="3"></path><g id="node_text6" fill="black"><text id="kity_text_65" text-rendering="inherit" font-size="12" dy=".8em" y="181.5" x="843.5">缓存Ajax请求</text></g></g><g id="minder_node7"><g id="node_expander6" style="cursor: pointer;" display="none"><path id="kity_path_76" fill="white" stroke="gray" d="M833.5,239.5A6,6,0,1,1,821.5,239.5A6,6,0,1,1,833.5,239.5"></path><path id="kity_path_77" fill="none" stroke="gray"></path></g><path id="node_outline7" fill="none" stroke="none" d="M838.5,228.5h58a5,5,0,0,1,5,5v12a5,5,0,0,1,-5,5h-58a5,5,0,0,1,-5,-5v-12a5,5,0,0,1,5,-5z" stroke-width="3"></path><g id="node_text7" fill="black"><text id="kity_text_73" text-rendering="inherit" font-size="12" dy=".8em" y="233.5" x="843.5">延迟加载</text></g></g><g id="minder_node8"><g id="node_expander7" style="cursor: pointer;" display="none"><path id="kity_path_84" fill="white" stroke="gray" d="M833.5,291.5A6,6,0,1,1,821.5,291.5A6,6,0,1,1,833.5,291.5"></path><path id="kity_path_85" fill="none" stroke="gray"></path></g><path id="node_outline8" fill="none" stroke="none" d="M838.5,280.5h49a5,5,0,0,1,5,5v12a5,5,0,0,1,-5,5h-49a5,5,0,0,1,-5,-5v-12a5,5,0,0,1,5,-5z" stroke-width="3"></path><g id="node_text8" fill="black"><text id="kity_text_81" text-rendering="inherit" font-size="12" dy=".8em" y="285.5" x="843.5">预加载&#xa0;</text></g></g><g id="minder_node9"><g id="node_expander8" style="cursor: pointer;" display="none"><path id="kity_path_92" fill="white" stroke="gray" d="M833.5,343.5A6,6,0,1,1,821.5,343.5A6,6,0,1,1,833.5,343.5"></path><path id="kity_path_93" fill="none" stroke="gray"></path></g><path id="node_outline9" fill="none" stroke="none" d="M838.5,332.5h112a5,5,0,0,1,5,5v12a5,5,0,0,1,-5,5h-112a5,5,0,0,1,-5,-5v-12a5,5,0,0,1,5,-5z" stroke-width="3"></path><g id="node_text9" fill="black"><text id="kity_text_89" text-rendering="inherit" font-size="12" dy=".8em" y="337.5" x="843.5">减少DOM元素数量</text></g></g><g id="minder_node10"><g id="node_expander9" style="cursor: pointer;" display="none"><path id="kity_path_100" fill="white" stroke="gray" d="M833.5,395.5A6,6,0,1,1,821.5,395.5A6,6,0,1,1,833.5,395.5"></path><path id="kity_path_101" fill="none" stroke="gray"></path></g><path id="node_outline10" fill="none" stroke="none" d="M838.5,384.5h118a5,5,0,0,1,5,5v12a5,5,0,0,1,-5,5h-118a5,5,0,0,1,-5,-5v-12a5,5,0,0,1,5,-5z" stroke-width="3"></path><g id="node_text10" fill="black"><text id="kity_text_97" text-rendering="inherit" font-size="12" dy=".8em" y="389.5" x="843.5">划分内容到不同域名 </text></g></g><g id="minder_node11"><g id="node_expander10" style="cursor: pointer;" display="none"><path id="kity_path_108" fill="white" stroke="gray" d="M833.5,447.5A6,6,0,1,1,821.5,447.5A6,6,0,1,1,833.5,447.5"></path><path id="kity_path_109" fill="none" stroke="gray"></path></g><path id="node_outline11" fill="none" stroke="none" d="M838.5,436.5h119a5,5,0,0,1,5,5v12a5,5,0,0,1,-5,5h-119a5,5,0,0,1,-5,-5v-12a5,5,0,0,1,5,-5z" stroke-width="3"></path><g id="node_text11" fill="black"><text id="kity_text_105" text-rendering="inherit" font-size="12" dy=".8em" y="441.5" x="843.5">尽量减少iframe使用</text></g></g><g id="minder_node12"><g id="node_expander11" style="cursor: pointer;" display="none"><path id="kity_path_116" fill="white" stroke="gray" d="M833.5,499.5A6,6,0,1,1,821.5,499.5A6,6,0,1,1,833.5,499.5"></path><path id="kity_path_117" fill="none" stroke="gray"></path></g><path id="node_outline12" fill="none" stroke="none" d="M838.5,488.5h78a5,5,0,0,1,5,5v12a5,5,0,0,1,-5,5h-78a5,5,0,0,1,-5,-5v-12a5,5,0,0,1,5,-5z" stroke-width="3"></path><g id="node_text12" fill="black"><text id="kity_text_113" text-rendering="inherit" font-size="12" dy=".8em" y="493.5" x="843.5">避免404错误</text></g></g><g id="minder_node13"><path id="kity_path_383" fill="rgba(0, 0, 0, .25)" stroke="none" d="M706.5,708.5h78a5,5,0,0,1,5,5v18a5,5,0,0,1,-5,5h-78a5,5,0,0,1,-5,-5v-18a5,5,0,0,1,5,-5z" display="none"></path><g id="node_expander12" style="cursor: pointer;"><path id="kity_path_124" fill="white" stroke="gray" d="M696.5,717.5A6,6,0,1,1,684.5,717.5A6,6,0,1,1,696.5,717.5"></path><path id="kity_path_125" fill="none" stroke="gray" d="M686,717.5L695,717.5"></path></g><path id="node_outline13" fill="rgb(238, 243, 246)" stroke="rgb(115, 161, 191)" d="M700.5,704.5h76a3,3,0,0,1,3,3v20a3,3,0,0,1,-3,3h-76a3,3,0,0,1,-3,-3v-20a3,3,0,0,1,3,-3z" stroke-width="1"></path><g id="node_text13" fill="black"><text id="kity_text_121" text-rendering="inherit" font-size="14" dy=".8em" y="710.5" x="717.5">服务器</text></g></g><g id="minder_node14"><path id="kity_path_384" fill="rgba(0, 0, 0, .25)" stroke="none" d="M706.5,952.5h86a5,5,0,0,1,5,5v18a5,5,0,0,1,-5,5h-86a5,5,0,0,1,-5,-5v-18a5,5,0,0,1,5,-5z" display="none"></path><g id="node_expander13" style="cursor: pointer;"><path id="kity_path_132" fill="white" stroke="gray" d="M696.5,961.5A6,6,0,1,1,684.5,961.5A6,6,0,1,1,696.5,961.5"></path><path id="kity_path_133" fill="none" stroke="gray" d="M686,961.5L695,961.5"></path></g><path id="node_outline14" fill="rgb(238, 243, 246)" stroke="rgb(115, 161, 191)" d="M700.5,948.5h83a3,3,0,0,1,3,3v20a3,3,0,0,1,-3,3h-83a3,3,0,0,1,-3,-3v-20a3,3,0,0,1,3,-3z" stroke-width="1"></path><g id="node_text14" fill="black"><text id="kity_text_129" text-rendering="inherit" font-size="14" dy=".8em" y="954.5" x="717.5">Cookie</text></g></g><g id="minder_node15" opacity="1"><path id="kity_path_385" fill="rgba(0, 0, 0, .25)" stroke="none" d="M706.5,1170.5h99a5,5,0,0,1,5,5v18a5,5,0,0,1,-5,5h-99a5,5,0,0,1,-5,-5v-18a5,5,0,0,1,5,-5z" display="none"></path><g id="node_expander14" style="cursor: pointer;"><path id="kity_path_140" fill="white" stroke="gray" d="M696.5,1179.5A6,6,0,1,1,684.5,1179.5A6,6,0,1,1,696.5,1179.5"></path><path id="kity_path_141" fill="none" stroke="gray" d="M686,1179.5L695,1179.5"></path></g><path id="node_outline15" fill="rgb(238, 243, 246)" stroke="rgb(115, 161, 191)" d="M700.5,1166.5h94a3,3,0,0,1,3,3v20a3,3,0,0,1,-3,3h-94a3,3,0,0,1,-3,-3v-20a3,3,0,0,1,3,-3z" stroke-width="1"></path><g id="node_text15" fill="black"><text id="kity_text_137" text-rendering="inherit" font-size="14" dy=".8em" y="1172.5" x="717.5">Javasript</text></g></g><g id="minder_node16"><path id="kity_path_386" fill="rgba(0, 0, 0, .25)" stroke="none" d="M272.5,521.5h78a5,5,0,0,1,5,5v18a5,5,0,0,1,-5,5h-78a5,5,0,0,1,-5,-5v-18a5,5,0,0,1,5,-5z" display="none"></path><g id="node_expander15" style="cursor: pointer;"><path id="kity_path_148" fill="white" stroke="gray" d="M358.5,530.5A6,6,0,1,1,346.5,530.5A6,6,0,1,1,358.5,530.5"></path><path id="kity_path_149" fill="none" stroke="gray" d="M348,530.5L357,530.5"></path></g><path id="node_outline16" fill="rgb(238, 243, 246)" stroke="rgb(115, 161, 191)" d="M266.5,517.5h76a3,3,0,0,1,3,3v20a3,3,0,0,1,-3,3h-76a3,3,0,0,1,-3,-3v-20a3,3,0,0,1,3,-3z" stroke-width="1"></path><g id="node_text16" fill="black"><text id="kity_text_145" text-rendering="inherit" font-size="14" dy=".8em" y="523.5" x="283.5">移动端</text></g></g><g id="minder_node17"><path id="kity_path_387" fill="rgba(0, 0, 0, .25)" stroke="none" d="M286.5,687.5h62a5,5,0,0,1,5,5v18a5,5,0,0,1,-5,5h-62a5,5,0,0,1,-5,-5v-18a5,5,0,0,1,5,-5z" display="none"></path><g id="node_expander16" style="cursor: pointer;"><path id="kity_path_156" fill="white" stroke="gray" d="M358.5,696.5A6,6,0,1,1,346.5,696.5A6,6,0,1,1,358.5,696.5"></path><path id="kity_path_157" fill="none" stroke="gray" d="M348,696.5L357,696.5"></path></g><path id="node_outline17" fill="rgb(238, 243, 246)" stroke="rgb(115, 161, 191)" d="M280.5,683.5h62a3,3,0,0,1,3,3v20a3,3,0,0,1,-3,3h-62a3,3,0,0,1,-3,-3v-20a3,3,0,0,1,3,-3z" stroke-width="1"></path><g id="node_text17" fill="black"><text id="kity_text_153" text-rendering="inherit" font-size="14" dy=".8em" y="689.5" x="297.5">图片</text></g></g><g id="minder_node18"><path id="kity_path_388" fill="rgba(0, 0, 0, .25)" stroke="none" d="M289.5,905.5h59a5,5,0,0,1,5,5v18a5,5,0,0,1,-5,5h-59a5,5,0,0,1,-5,-5v-18a5,5,0,0,1,5,-5z" display="none"></path><g id="node_expander17" style="cursor: pointer;"><path id="kity_path_164" fill="white" stroke="gray" d="M358.5,914.5A6,6,0,1,1,346.5,914.5A6,6,0,1,1,358.5,914.5"></path><path id="kity_path_165" fill="none" stroke="gray" d="M348,914.5L357,914.5"></path></g><path id="node_outline18" fill="rgb(238, 243, 246)" stroke="rgb(115, 161, 191)" d="M283.5,901.5h59a3,3,0,0,1,3,3v20a3,3,0,0,1,-3,3h-59a3,3,0,0,1,-3,-3v-20a3,3,0,0,1,3,-3z" stroke-width="1"></path><g id="node_text18" fill="black"><text id="kity_text_161" text-rendering="inherit" font-size="14" dy=".8em" y="907.5" x="300.5">CSS</text></g></g><g id="minder_node19"><g id="node_expander18" style="cursor: pointer;" display="none"><path id="kity_path_172" fill="white" stroke="gray" d="M819.5,561.5A6,6,0,1,1,807.5,561.5A6,6,0,1,1,819.5,561.5"></path><path id="kity_path_173" fill="none" stroke="gray"></path></g><path id="node_outline19" fill="none" stroke="none" d="M824.5,550.5h62a5,5,0,0,1,5,5v12a5,5,0,0,1,-5,5h-62a5,5,0,0,1,-5,-5v-12a5,5,0,0,1,5,-5z" stroke-width="3"></path><g id="node_text19" fill="black"><text id="kity_text_169" text-rendering="inherit" font-size="12" dy=".8em" y="555.5" x="829.5">使用CDN</text></g></g><g id="minder_node20"><g id="node_expander19" style="cursor: pointer;" display="none"><path id="kity_path_180" fill="white" stroke="gray" d="M819.5,613.5A6,6,0,1,1,807.5,613.5A6,6,0,1,1,819.5,613.5"></path><path id="kity_path_181" fill="none" stroke="gray"></path></g><path id="node_outline20" fill="none" stroke="none" d="M824.5,602.5h209a5,5,0,0,1,5,5v12a5,5,0,0,1,-5,5h-209a5,5,0,0,1,-5,-5v-12a5,5,0,0,1,5,-5z" stroke-width="3"></path><g id="node_text20" fill="black"><text id="kity_text_177" text-rendering="inherit" font-size="12" dy=".8em" y="607.5" x="829.5">添加Expires或Cache-Control响应头</text></g></g><g id="minder_node21"><g id="node_expander20" style="cursor: pointer;" display="none"><path id="kity_path_188" fill="white" stroke="gray" d="M819.5,665.5A6,6,0,1,1,807.5,665.5A6,6,0,1,1,819.5,665.5"></path><path id="kity_path_189" fill="none" stroke="gray"></path></g><path id="node_outline21" fill="none" stroke="none" d="M824.5,654.5h60a5,5,0,0,1,5,5v12a5,5,0,0,1,-5,5h-60a5,5,0,0,1,-5,-5v-12a5,5,0,0,1,5,-5z" stroke-width="3"></path><g id="node_text21" fill="black"><text id="kity_text_185" text-rendering="inherit" font-size="12" dy=".8em" y="659.5" x="829.5">启用Gzip</text></g></g><g id="minder_node22"><g id="node_expander21" style="cursor: pointer;" display="none"><path id="kity_path_196" fill="white" stroke="gray" d="M819.5,717.5A6,6,0,1,1,807.5,717.5A6,6,0,1,1,819.5,717.5"></path><path id="kity_path_197" fill="none" stroke="gray"></path></g><path id="node_outline22" fill="none" stroke="none" d="M824.5,706.5h64a5,5,0,0,1,5,5v12a5,5,0,0,1,-5,5h-64a5,5,0,0,1,-5,-5v-12a5,5,0,0,1,5,-5z" stroke-width="3"></path><g id="node_text22" fill="black"><text id="kity_text_193" text-rendering="inherit" font-size="12" dy=".8em" y="711.5" x="829.5">配置 Etag</text></g></g><g id="minder_node23"><g id="node_expander22" style="cursor: pointer;" display="none"><path id="kity_path_204" fill="white" stroke="gray" d="M819.5,769.5A6,6,0,1,1,807.5,769.5A6,6,0,1,1,819.5,769.5"></path><path id="kity_path_205" fill="none" stroke="gray"></path></g><path id="node_outline23" fill="none" stroke="none" d="M824.5,758.5h131a5,5,0,0,1,5,5v12a5,5,0,0,1,-5,5h-131a5,5,0,0,1,-5,-5v-12a5,5,0,0,1,5,-5z" stroke-width="3"></path><g id="node_text23" fill="black"><text id="kity_text_201" text-rendering="inherit" font-size="12" dy=".8em" y="763.5" x="829.5">尽早输出（flush）缓冲</text></g></g><g id="minder_node24"><g id="node_expander23" style="cursor: pointer;" display="none"><path id="kity_path_212" fill="white" stroke="gray" d="M819.5,821.5A6,6,0,1,1,807.5,821.5A6,6,0,1,1,819.5,821.5"></path><path id="kity_path_213" fill="none" stroke="gray"></path></g><path id="node_outline24" fill="none" stroke="none" d="M824.5,810.5h129a5,5,0,0,1,5,5v12a5,5,0,0,1,-5,5h-129a5,5,0,0,1,-5,-5v-12a5,5,0,0,1,5,-5z" stroke-width="3"></path><g id="node_text24" fill="black"><text id="kity_text_209" text-rendering="inherit" font-size="12" dy=".8em" y="815.5" x="829.5">Ajax请求使用GET方法</text></g></g><g id="minder_node26"><g id="node_expander25" style="cursor: pointer;" display="none"><path id="kity_path_228" fill="white" stroke="gray" d="M819.5,873.5A6,6,0,1,1,807.5,873.5A6,6,0,1,1,819.5,873.5"></path><path id="kity_path_229" fill="none" stroke="gray"></path></g><path id="node_outline26" fill="none" stroke="none" d="M824.5,862.5h98a5,5,0,0,1,5,5v12a5,5,0,0,1,-5,5h-98a5,5,0,0,1,-5,-5v-12a5,5,0,0,1,5,-5z" stroke-width="3"></path><g id="node_text26" fill="black"><text id="kity_text_225" text-rendering="inherit" font-size="12" dy=".8em" y="867.5" x="829.5">避免图片src为空</text></g></g><g id="minder_node27"><g id="node_expander26" style="cursor: pointer;" display="none"><path id="kity_path_236" fill="white" stroke="gray" d="M826.5,935.5A6,6,0,1,1,814.5,935.5A6,6,0,1,1,826.5,935.5"></path><path id="kity_path_237" fill="none" stroke="gray"></path></g><path id="node_outline27" fill="none" stroke="none" d="M831.5,924.5h106a5,5,0,0,1,5,5v12a5,5,0,0,1,-5,5h-106a5,5,0,0,1,-5,-5v-12a5,5,0,0,1,5,-5z" stroke-width="3"></path><g id="node_text27" fill="black"><text id="kity_text_233" text-rendering="inherit" font-size="12" dy=".8em" y="929.5" x="836.5">减少 Cookie 大小</text></g></g><g id="minder_node28"><g id="node_expander27" style="cursor: pointer;" display="none"><path id="kity_path_244" fill="white" stroke="gray" d="M826.5,987.5A6,6,0,1,1,814.5,987.5A6,6,0,1,1,826.5,987.5"></path><path id="kity_path_245" fill="none" stroke="gray"></path></g><path id="node_outline28" fill="none" stroke="none" d="M831.5,976.5h160a5,5,0,0,1,5,5v12a5,5,0,0,1,-5,5h-160a5,5,0,0,1,-5,-5v-12a5,5,0,0,1,5,-5z" stroke-width="3"></path><g id="node_text28" fill="black"><text id="kity_text_241" text-rendering="inherit" font-size="12" dy=".8em" y="981.5" x="836.5">静态资源使用无Cookie域名</text></g></g><g id="minder_node29"><g id="node_expander28" style="cursor: pointer;" display="none"><path id="kity_path_252" fill="white" stroke="gray" d="M235.5,504.5A6,6,0,1,1,223.5,504.5A6,6,0,1,1,235.5,504.5"></path><path id="kity_path_253" fill="none" stroke="gray"></path></g><path id="node_outline29" fill="none" stroke="none" d="M80.5,493.5h138a5,5,0,0,1,5,5v12a5,5,0,0,1,-5,5h-138a5,5,0,0,1,-5,-5v-12a5,5,0,0,1,5,-5z" stroke-width="3"></path><g id="node_text29" fill="black"><text id="kity_text_249" text-rendering="inherit" font-size="12" dy=".8em" y="498.5" x="85.5">保证所有组件都小于25K</text></g></g><g id="minder_node30"><g id="node_expander29" style="cursor: pointer;" display="none"><path id="kity_path_260" fill="white" stroke="gray" d="M235.5,556.5A6,6,0,1,1,223.5,556.5A6,6,0,1,1,235.5,556.5"></path><path id="kity_path_261" fill="none" stroke="gray"></path></g><path id="node_outline30" fill="none" stroke="none" d="M25.5,545.5h193a5,5,0,0,1,5,5v12a5,5,0,0,1,-5,5h-193a5,5,0,0,1,-5,-5v-12a5,5,0,0,1,5,-5z" stroke-width="3"></path><g id="node_text30" fill="black"><text id="kity_text_257" text-rendering="inherit" font-size="12" dy=".8em" y="550.5" x="30.5">打包内容为分段（multipart）文档</text></g></g><g id="minder_node31"><g id="node_expander30" style="cursor: pointer;" display="none"><path id="kity_path_268" fill="white" stroke="gray" d="M249.5,618.5A6,6,0,1,1,237.5,618.5A6,6,0,1,1,249.5,618.5"></path><path id="kity_path_269" fill="none" stroke="gray"></path></g><path id="node_outline31" fill="none" stroke="none" d="M174.5,607.5h58a5,5,0,0,1,5,5v12a5,5,0,0,1,-5,5h-58a5,5,0,0,1,-5,-5v-12a5,5,0,0,1,5,-5z" stroke-width="3"></path><g id="node_text31" fill="black"><text id="kity_text_265" text-rendering="inherit" font-size="12" dy=".8em" y="612.5" x="179.5">优化图片</text></g></g><g id="minder_node32"><g id="node_expander31" style="cursor: pointer;" display="none"><path id="kity_path_276" fill="white" stroke="gray" d="M249.5,670.5A6,6,0,1,1,237.5,670.5A6,6,0,1,1,249.5,670.5"></path><path id="kity_path_277" fill="none" stroke="gray"></path></g><path id="node_outline32" fill="none" stroke="none" d="M141.5,659.5h91a5,5,0,0,1,5,5v12a5,5,0,0,1,-5,5h-91a5,5,0,0,1,-5,-5v-12a5,5,0,0,1,5,-5z" stroke-width="3"></path><g id="node_text32" fill="black"><text id="kity_text_273" text-rendering="inherit" font-size="12" dy=".8em" y="664.5" x="146.5">优化CSS Sprite</text></g></g><g id="minder_node33"><g id="node_expander32" style="cursor: pointer;" display="none"><path id="kity_path_284" fill="white" stroke="gray" d="M249.5,722.5A6,6,0,1,1,237.5,722.5A6,6,0,1,1,249.5,722.5"></path><path id="kity_path_285" fill="none" stroke="gray"></path></g><path id="node_outline33" fill="none" stroke="none" d="M111.5,711.5h121a5,5,0,0,1,5,5v12a5,5,0,0,1,-5,5h-121a5,5,0,0,1,-5,-5v-12a5,5,0,0,1,5,-5z" stroke-width="3"></path><g id="node_text33" fill="black"><text id="kity_text_281" text-rendering="inherit" font-size="12" dy=".8em" y="716.5" x="116.5">不在HTMl中缩放图片</text></g></g><g id="minder_node34"><g id="node_expander33" style="cursor: pointer;" display="none"><path id="kity_path_292" fill="white" stroke="gray" d="M249.5,774.5A6,6,0,1,1,237.5,774.5A6,6,0,1,1,249.5,774.5"></path><path id="kity_path_293" fill="none" stroke="gray"></path></g><path id="node_outline34" fill="none" stroke="none" d="M37.5,763.5h195a5,5,0,0,1,5,5v12a5,5,0,0,1,-5,5h-195a5,5,0,0,1,-5,-5v-12a5,5,0,0,1,5,-5z" stroke-width="3"></path><g id="node_text34" fill="black"><text id="kity_text_289" text-rendering="inherit" font-size="12" dy=".8em" y="768.5" x="42.5">使用体积小、可缓存的favicon.ico</text></g></g><g id="minder_node35"><g id="node_expander34" style="cursor: pointer;" display="none"><path id="kity_path_300" fill="white" stroke="gray" d="M252.5,836.5A6,6,0,1,1,240.5,836.5A6,6,0,1,1,252.5,836.5"></path><path id="kity_path_301" fill="none" stroke="gray"></path></g><path id="node_outline35" fill="none" stroke="none" d="M95.5,825.5h140a5,5,0,0,1,5,5v12a5,5,0,0,1,-5,5h-140a5,5,0,0,1,-5,-5v-12a5,5,0,0,1,5,-5z" stroke-width="3"></path><g id="node_text35" fill="black"><text id="kity_text_297" text-rendering="inherit" font-size="12" dy=".8em" y="830.5" x="100.5">把样式表放在&lt;head&gt;中</text></g></g><g id="minder_node36"><g id="node_expander35" style="cursor: pointer;" display="none"><path id="kity_path_308" fill="white" stroke="gray" d="M252.5,888.5A6,6,0,1,1,240.5,888.5A6,6,0,1,1,252.5,888.5"></path><path id="kity_path_309" fill="none" stroke="gray"></path></g><path id="node_outline36" fill="none" stroke="none" d="M119.5,877.5h116a5,5,0,0,1,5,5v12a5,5,0,0,1,-5,5h-116a5,5,0,0,1,-5,-5v-12a5,5,0,0,1,5,-5z" stroke-width="3"></path><g id="node_text36" fill="black"><text id="kity_text_305" text-rendering="inherit" font-size="12" dy=".8em" y="882.5" x="124.5">不要使用CSS表达式</text></g></g><g id="minder_node37"><g id="node_expander36" style="cursor: pointer;" display="none"><path id="kity_path_316" fill="white" stroke="gray" d="M252.5,940.5A6,6,0,1,1,240.5,940.5A6,6,0,1,1,252.5,940.5"></path><path id="kity_path_317" fill="none" stroke="gray"></path></g><path id="node_outline37" fill="none" stroke="none" d="M97.5,929.5h138a5,5,0,0,1,5,5v12a5,5,0,0,1,-5,5h-138a5,5,0,0,1,-5,-5v-12a5,5,0,0,1,5,-5z" stroke-width="3"></path><g id="node_text37" fill="black"><text id="kity_text_313" text-rendering="inherit" font-size="12" dy=".8em" y="934.5" x="102.5">使用&lt;link&gt;替代@import</text></g></g><g id="minder_node38"><g id="node_expander37" style="cursor: pointer;" display="none"><path id="kity_path_324" fill="white" stroke="gray" d="M252.5,992.5A6,6,0,1,1,240.5,992.5A6,6,0,1,1,252.5,992.5"></path><path id="kity_path_325" fill="none" stroke="gray"></path></g><path id="node_outline38" fill="none" stroke="none" d="M150.5,981.5h85a5,5,0,0,1,5,5v12a5,5,0,0,1,-5,5h-85a5,5,0,0,1,-5,-5v-12a5,5,0,0,1,5,-5z" stroke-width="3"></path><g id="node_text38" fill="black"><text id="kity_text_321" text-rendering="inherit" font-size="12" dy=".8em" y="986.5" x="155.5">不要使用 filter</text></g></g><g id="kity_g_12" display="none"><path id="kity_path_13" fill="none" stroke="rgb(66, 94, 112)" d="M177.5,1020.5h58a5,5,0,0,1,5,5v12a5,5,0,0,1,-5,5h-58a5,5,0,0,1,-5,-5v-12a5,5,0,0,1,5,-5z" stroke-width="5"></path></g><g id="minder_node40"><g id="node_expander39" style="cursor: pointer;" display="none"><path id="kity_path_340" fill="white" stroke="gray" d="M837.5,1049.5A6,6,0,1,1,825.5,1049.5A6,6,0,1,1,837.5,1049.5"></path><path id="kity_path_341" fill="none" stroke="gray"></path></g><path id="node_outline40" fill="none" stroke="none" d="M842.5,1038.5h118a5,5,0,0,1,5,5v12a5,5,0,0,1,-5,5h-118a5,5,0,0,1,-5,-5v-12a5,5,0,0,1,5,-5z" stroke-width="3"></path><g id="node_text40" fill="black"><text id="kity_text_337" text-rendering="inherit" font-size="12" dy=".8em" y="1043.5" x="847.5">把脚本放在页面底部</text></g></g><g id="minder_node41"><g id="node_expander40" style="cursor: pointer;" display="none"><path id="kity_path_348" fill="white" stroke="gray" d="M837.5,1101.5A6,6,0,1,1,825.5,1101.5A6,6,0,1,1,837.5,1101.5"></path><path id="kity_path_349" fill="none" stroke="gray"></path></g><path id="node_outline41" fill="none" stroke="none" d="M842.5,1090.5h153a5,5,0,0,1,5,5v12a5,5,0,0,1,-5,5h-153a5,5,0,0,1,-5,-5v-12a5,5,0,0,1,5,-5z" stroke-width="3"></path><g id="node_text41" fill="black"><text id="kity_text_345" text-rendering="inherit" font-size="12" dy=".8em" y="1095.5" x="847.5">使用外部JavaScript和CSS</text></g></g><g id="minder_node42"><g id="node_expander41" style="cursor: pointer;" display="none"><path id="kity_path_356" fill="white" stroke="gray" d="M837.5,1153.5A6,6,0,1,1,825.5,1153.5A6,6,0,1,1,837.5,1153.5"></path><path id="kity_path_357" fill="none" stroke="gray"></path></g><path id="node_outline42" fill="none" stroke="none" d="M842.5,1142.5h129a5,5,0,0,1,5,5v12a5,5,0,0,1,-5,5h-129a5,5,0,0,1,-5,-5v-12a5,5,0,0,1,5,-5z" stroke-width="3"></path><g id="node_text42" fill="black"><text id="kity_text_353" text-rendering="inherit" font-size="12" dy=".8em" y="1147.5" x="847.5">压缩JavaScript和CSS</text></g></g><g id="minder_node43"><g id="node_expander42" style="cursor: pointer;" display="none"><path id="kity_path_364" fill="white" stroke="gray" d="M837.5,1205.5A6,6,0,1,1,825.5,1205.5A6,6,0,1,1,837.5,1205.5"></path><path id="kity_path_365" fill="none" stroke="gray"></path></g><path id="node_outline43" fill="none" stroke="none" d="M842.5,1194.5h82a5,5,0,0,1,5,5v12a5,5,0,0,1,-5,5h-82a5,5,0,0,1,-5,-5v-12a5,5,0,0,1,5,-5z" stroke-width="3"></path><g id="node_text43" fill="black"><text id="kity_text_361" text-rendering="inherit" font-size="12" dy=".8em" y="1199.5" x="847.5">移除重复脚本</text></g></g><g id="minder_node44"><g id="node_expander43" style="cursor: pointer;" display="none"><path id="kity_path_372" fill="white" stroke="gray" d="M837.5,1257.5A6,6,0,1,1,825.5,1257.5A6,6,0,1,1,837.5,1257.5"></path><path id="kity_path_373" fill="none" stroke="gray"></path></g><path id="node_outline44" fill="none" stroke="none" d="M842.5,1246.5h88a5,5,0,0,1,5,5v12a5,5,0,0,1,-5,5h-88a5,5,0,0,1,-5,-5v-12a5,5,0,0,1,5,-5z" stroke-width="3"></path><g id="node_text44" fill="black"><text id="kity_text_369" text-rendering="inherit" font-size="12" dy=".8em" y="1251.5" x="847.5">减少DOM操作</text></g></g><g id="minder_node45"><g id="node_expander44" style="cursor: pointer;" display="none"><path id="kity_path_380" fill="white" stroke="gray" d="M837.5,1309.5A6,6,0,1,1,825.5,1309.5A6,6,0,1,1,837.5,1309.5"></path><path id="kity_path_381" fill="none" stroke="gray"></path></g><path id="node_outline45" fill="none" stroke="none" d="M842.5,1298.5h118a5,5,0,0,1,5,5v12a5,5,0,0,1,-5,5h-118a5,5,0,0,1,-5,-5v-12a5,5,0,0,1,5,-5z" stroke-width="3"></path><g id="node_text45" fill="black"><text id="kity_text_377" text-rendering="inherit" font-size="12" dy=".8em" y="1303.5" x="847.5">使用高效的事件处理</text></g></g></g></g></svg>